/* XPM */
static char *result[] = {
/* columns rows colors chars-per-pixel */
"32 32 191 2 ",
"   c #000000",
".  c #000900",
"X  c #000009",
"o  c #0E0000",
"O  c #00150B",
"+  c #0C110D",
"@  c #000716",
"#  c #00171B",
"$  c #011814",
"%  c #101212",
"&  c #131C1B",
"*  c #260013",
"=  c #221E1B",
"-  c #3E1515",
";  c #000023",
":  c #00132D",
">  c #161E20",
",  c #2C1D29",
"<  c #1E2E2E",
"1  c #1D2228",
"2  c #2C222C",
"3  c #252620",
"4  c #2E2730",
"5  c #2F3238",
"6  c #6B1800",
"7  c #40241C",
"8  c #422A1E",
"9  c #71361F",
"0  c #6D2F19",
"q  c #760039",
"w  c #47253E",
"e  c #5F3137",
"r  c #7A2F36",
"t  c #46432E",
"y  c #724232",
"u  c #00004D",
"i  c #003C43",
"p  c #002C54",
"a  c #00345C",
"s  c #003457",
"d  c #17384C",
"f  c #3F304A",
"g  c #312F50",
"h  c #353655",
"j  c #283152",
"k  c #5D1F40",
"l  c #4E2B45",
"z  c #4B2A48",
"x  c #4E334B",
"c  c #45374B",
"v  c #5A304B",
"b  c #6F3E4D",
"n  c #7C3C47",
"m  c #772244",
"M  c #004248",
"N  c #1D454A",
"B  c #1F4D4E",
"V  c #2C4546",
"C  c #2E4B4C",
"Z  c #224140",
"A  c #2D4453",
"S  c #1F4B61",
"D  c #284A61",
"F  c #314B60",
"G  c #2F5164",
"H  c #335164",
"J  c #3B5365",
"K  c #395278",
"L  c #066D7A",
"P  c #15717E",
"I  c #3F637D",
"U  c #387274",
"Y  c #4D4D5C",
"T  c #4B465A",
"R  c #564559",
"E  c #484846",
"W  c #6F414E",
"Q  c #7B464E",
"!  c #714F46",
"~  c #7C715E",
"^  c #796F45",
"/  c #4F5463",
"(  c #555362",
")  c #595665",
"_  c #575E77",
"`  c #56646D",
"'  c #42657D",
"]  c #456A73",
"[  c #477473",
"{  c #4A7374",
"}  c #4D7479",
"|  c #4C7C7D",
" . c #437A7D",
".. c #557779",
"X. c #47676C",
"o. c #7C7A75",
"O. c #BF3C00",
"+. c #863A2A",
"@. c #873331",
"#. c #862A2E",
"$. c #8D4427",
"%. c #845030",
"&. c #905532",
"*. c #8A493B",
"=. c #C85420",
"-. c #D4542B",
";. c #D5542E",
":. c #D7622D",
">. c #D26433",
",. c #D7653B",
"<. c #D9663B",
"1. c #D7683E",
"2. c #DA693E",
"3. c #DA6832",
"4. c #EA6731",
"5. c #EB7038",
"6. c #873C45",
"7. c #894246",
"8. c #87474A",
"9. c #895351",
"0. c #A55549",
"q. c #BB5B42",
"w. c #926E4E",
"e. c #897149",
"r. c #866A4E",
"t. c #AE7F5F",
"y. c #8E7E7A",
"u. c #897E6B",
"i. c #C3674D",
"p. c #DA6A41",
"a. c #DE7545",
"s. c #E07853",
"d. c #7D807D",
"f. c #8E8151",
"g. c #B0845F",
"h. c #8D8279",
"j. c #DC8952",
"k. c #E38A4C",
"l. c #EB9358",
"z. c #E59464",
"x. c #D2BF78",
"c. c #EDC57A",
"v. c #FFCE7C",
"b. c #147881",
"n. c #4C7F80",
"m. c #457C81",
"M. c #557C81",
"N. c #5F7685",
"B. c #35888C",
"V. c #4D8283",
"C. c #538185",
"Z. c #558589",
"A. c #548B8C",
"S. c #59838A",
"D. c #598F91",
"F. c #5A8F9A",
"G. c #5D949B",
"H. c #569396",
"J. c #60989F",
"K. c #6C9792",
"L. c #719C9D",
"P. c #5D97A1",
"I. c #5E98A0",
"U. c #6199A1",
"Y. c #699EB1",
"T. c #56A6BD",
"R. c #6EA6BC",
"E. c #6EA9BC",
"W. c #73A6BB",
"Q. c #5EACC6",
"!. c #68AEC6",
"~. c #70A9C0",
"^. c #74B1C3",
"/. c #75B5C9",
"(. c #7CBED5",
"). c #77BED6",
"_. c #6AB9D7",
"`. c #7FC1DA",
"'. c #90A28D",
"]. c #91A492",
"[. c #9EBBB9",
"{. c #D4C481",
"}. c #E8C981",
"|. c #F2CB80",
" X c #F6DD8B",
".X c #E6D496",
"XX c #FFE08C",
"oX c #EADEAE",
"OX c #88C1D3",
"+X c #A4C8CC",
"@X c None",
/* pixels */
"@X@X@X@X@X@X@X@X@X@X@X@X@X@X@X@X@X@X@X@X@X@X@X@X@X@X@X@X@X@X@X@X",
"@X@X@X@X@X@X@X@X@X@X@X@X@X@X@X@X@X@X@X@X@X@X@X@X@X@X@X@X@X@X@X@X",
"@X@X@X@X@X@X@X@X@X@X@X@X@X@X@X@X@X@X@X@X@X@X@X@X@X@X@X@X@X@X@X@X",
"@X@X@X@X@X@X@X@X@X@X@X@X@X@X@X@X@X@X@X@X@X@X@X@X@X@X@X@X@X@X@X@X",
"@X@X@X@X@X@X@X@X@X@X@X@X@X@X@X@X@X@X@X@X@X@X@X@X@X@X@X@X@X@X@X@X",
"@X@X@X@X@X@X@X@X@X@X@X@X@X@X@X@X@X@X@X@X@X@X@X@X@X@X@X@X@X@X@X@X",
"@X@X@X@X@X@X@X@X@X@X@X@X@X@X@X@X@X@X@X@X@X@X@X@X@X@X@X@X@X@X@X@X",
"@X@X@X@X@X@X@X@X@X@X@X@X@X@X@X@X@X@X@X@X@X@X@X@X@X@X@X@X@X@X@X@X",
"@X@X@X@X& %                                     . $ & & @X@X@X@X",
"@X@X@X@X% < V C N N V V V V V V V V V C C C C Z 5 2 1 & @X@X@X@X",
"@X@X@X@X  V [ m.b.L U { [ [ [ [ [ [ [ [ } | d.U Y w 2 O @X@X@X@X",
"@X@X@X@X  C m.K.'.].L.I.U.J.J.J.J.U.U.G.D.A.D.S.) l 4 O @X@X@X@X",
"@X@X@X@X  N P '.}..X[.Q.~.^.^.E.^.^.^.E.G.C.A.M.) w 4 O @X@X@X@X",
"@X@X@X@X  M L ]..XoX+X_.).(.(.(.`.(.`.^.G.V.A.| ) l , . @X@X@X@X",
"@X@X= @   i U L.[.+XOX).(.(.(.(.`.`.`./.P.C.A.M.) w *   + 1 @X@X",
"@X@X# 7 6 ! ..H.T.!.!.W.R.R.R.R.R.E.E.Y.D...A...( x V Z < % @X@X",
"@X@X@ 0 O.i.K.B.P.F.N._ K K ' ' ' ' I ] / ` Z.C.( R } [ V   @X@X",
"@X@XX %.k.z.y.b.U X.f e r.w.*.#.@.@.#.r k T } } T / V.V.B   @X@X",
"@X@X  e.c.c.u.a D S u ~ {.c.k.;.<.<.<.q.b s D F g H B.B.B o @X@X",
"@X@X  w. X Xg.q 6.6.m t.|.v.k.=.-.3.5.2.0.Q 7.7.7.9.h.o.E   @X@X",
"@X@Xo f. XXXl.;.,.,.,.a.l.j.&.- 7 $.>.5.2.p.<.1.,.p.s.t.y X @X@X",
"@X@X  ^ x.c.j.;.,.1.p.,.4.-.$.7 8 $.>.5.2.1.1.1.1.4.:.=.9 @ @X@X",
"@X@X@ t ^ r.9.6.6.7.Q 0.<.4.3.>.:.3.5.2.0.Q 9.8.9.7.+.0 8 : @X@X",
"@X@X3 X   ; N J H D p b q.,.1.p.1.1.<.q.W p j h h d :   $ = @X@X",
"@X@X@X@X  d [ M.V.} T k n 7.7.7.7.7.7.n v z z x v c 1 O @X@X@X@X",
"@X@X@X@X  C d.D.D.Z.` Y J H H H H H G J / ) ) ) R x 4 O @X@X@X@X",
"@X@X@X@X  C B.A.D.A.S.M.C.C.n.C.M.C.V.C.Z.S.Z...) l 2 O @X@X@X@X",
"@X@X@X@X  Z U V.| | | V.V.n.n.n.n.V.| V.| V.V.} Y z 2 O @X@X@X@X",
"@X@X@X@X% < V C C C C C C C C C C C C C C C C V 5 , 1 & @X@X@X@X",
"@X@X@X@X> %                                     . $ & & @X@X@X@X",
"@X@X@X@X@X@X@X@X@X@X@X@X@X@X@X@X@X@X@X@X@X@X@X@X@X@X@X@X@X@X@X@X",
"@X@X@X@X@X@X@X@X@X@X@X@X@X@X@X@X@X@X@X@X@X@X@X@X@X@X@X@X@X@X@X@X"
};
