/* XPM */
static char *result[] = {
/* columns rows colors chars-per-pixel */
"32 32 178 2 ",
"   c #000000",
".  c #000800",
"X  c #000009",
"o  c #000F08",
"O  c #00140A",
"+  c #00180E",
"@  c #000011",
"#  c #000819",
"$  c #101211",
"%  c #131D1D",
"&  c #011913",
"*  c #340000",
"=  c #000024",
"-  c #000033",
";  c #00152F",
":  c #1E2E2F",
">  c #1E2124",
",  c #04353C",
"<  c #0E2433",
"1  c #2D242D",
"2  c #252720",
"3  c #2E2730",
"4  c #2E3138",
"5  c #6C2D1B",
"6  c #6D3018",
"7  c #52173C",
"8  c #510034",
"9  c #51223E",
"0  c #45253D",
"q  c #7F392E",
"w  c #46422F",
"e  c #7F6C30",
"r  c #000044",
"t  c #000049",
"y  c #09004C",
"u  c #093052",
"i  c #353655",
"p  c #283152",
"a  c #003A67",
"s  c #2E3F6B",
"d  c #4D2C46",
"f  c #4A2C4C",
"g  c #552C4A",
"h  c #5E2444",
"j  c #4C364B",
"k  c #45374C",
"l  c #54394F",
"z  c #58354D",
"x  c #563B53",
"c  c #7A3D4A",
"v  c #6F3E4D",
"b  c #1C454F",
"n  c #2B4445",
"m  c #2E4B4C",
"M  c #2F4648",
"N  c #124C7B",
"B  c #005E78",
"V  c #31446E",
"C  c #2F5663",
"Z  c #335264",
"A  c #3C5264",
"S  c #284960",
"D  c #3A6E71",
"F  c #4E4E5C",
"G  c #47465A",
"H  c #554459",
"J  c #554556",
"K  c #6F414E",
"L  c #5B6F47",
"P  c #786C45",
"I  c #7F7445",
"U  c #565563",
"Y  c #59566A",
"T  c #595665",
"R  c #555A71",
"E  c #5C5C72",
"W  c #4F5463",
"Q  c #56646D",
"!  c #456F73",
"~  c #5C6678",
"^  c #5C6275",
"/  c #4E7579",
"(  c #4C7D7D",
")  c #477477",
"_  c #58777D",
"`  c #881705",
"'  c #83393F",
"]  c #816510",
"[  c #855234",
"{  c #B94520",
"}  c #84713D",
"|  c #836C30",
" . c #D25024",
".. c #D15A2C",
"X. c #CC4E32",
"o. c #CD5033",
"O. c #D35332",
"+. c #CE4E2E",
"@. c #E65D2E",
"#. c #DA642F",
"$. c #DB673C",
"%. c #D8683F",
"&. c #EC6D31",
"*. c #843A45",
"=. c #894246",
"-. c #84434B",
";. c #BB5B43",
":. c #A35048",
">. c #866F47",
",. c #85764B",
"<. c #8B7B4B",
"1. c #867548",
"2. c #987B4C",
"3. c #927758",
"4. c #947D62",
"5. c #DA6840",
"6. c #8B8A74",
"7. c #978C79",
"8. c #8C886D",
"9. c #DE8750",
"0. c #D98D54",
"q. c #F39554",
"w. c #F99858",
"e. c #D0B874",
"r. c #E4BC76",
"t. c #EECE76",
"y. c #EECF79",
"u. c #F0CE7A",
"i. c #EFD07C",
"p. c #F1D076",
"a. c #F0D07C",
"s. c #FFD47A",
"d. c #4C7F80",
"f. c #587B84",
"g. c #4E8183",
"h. c #548185",
"j. c #5A858A",
"k. c #578589",
"l. c #5B8D91",
"z. c #538F9A",
"x. c #589293",
"c. c #61989F",
"v. c #5D9EAA",
"b. c #6E99AF",
"n. c #6F9AB0",
"m. c #6EA4B6",
"M. c #70A8BA",
"N. c #0098C2",
"B. c #1C9AC5",
"V. c #5FA8C7",
"C. c #59A8C6",
"Z. c #72AEC6",
"A. c #72B9CE",
"S. c #65BAD8",
"D. c #74BCD2",
"F. c #949082",
"G. c #94B4B7",
"H. c #A3BAB6",
"J. c #EBD283",
"K. c #EAD48A",
"L. c #E7D182",
"P. c #F1D384",
"I. c #FFD783",
"U. c #FFD886",
"Y. c #F1D68B",
"T. c #EADC9E",
"R. c #F3DE9C",
"E. c #F4E09F",
"W. c #FFEE9B",
"Q. c #FFF09B",
"!. c #F4E2A4",
"~. c #FBE6A2",
"^. c #9BC7CF",
"/. c #9DC7D0",
"(. c #A8C7C8",
"). c #A8C9C9",
"_. c #C2D1C0",
"`. c None",
/* pixels */
"`.`.`.`.`.`.`.`.`.`.`.`.`.`.`.`.`.`.`.`.`.`.`.`.`.`.`.`.`.`.`.`.",
"`.`.`.`.`.`.`.`.`.`.`.`.`.`.`.`.`.`.`.`.`.`.`.`.`.`.`.`.`.`.`.`.",
"`.`.`.`.% $       + O O O O O O O O O O O O +       $ % `.`.`.`.",
"`.`.`.`.$ : n M 4 1 3 3 3 3 3 3 3 3 3 3 3 1 1 4 M n : $ `.`.`.`.",
"`.`.`.`.  M ) / F d j j j j j j j j j j j j d F / ) M   `.`.`.`.",
"`.`.`.`.  m g.j.T g z z J x x l x x l x x x g U j.g.m   `.`.`.`.",
"`.`.`.`.  m g.k.U 7 7 9 l l 9 7 g g 9 9 l l 8 J k.g.m   `.`.`.`.",
"`.`.`.`.  m ( k.Q T ^ ^ H H ^ ~ U U ~ ^ H H E f.j.g.m   `.`.`.`.",
"`.`.`.`.  m h.l.h.l.M.n.Y Y b.m.f.f.m.n.Y Y n.M.c.( M   `.`.`.`.",
"`.`.`.`.  , D ) D z.A.Z.R Y Z.D.v.v.D.Z.R R Z.D.x.C ,   `.`.`.`.",
"`.`.2 @     - -   B C.V.s s C.S.C.S.S.v.s V V.C.B       @ 2 `.`.",
"`.`.@ w P 1.} | ] 6.H.H.7.7.H.).(.^.(.H.7.7.H.H.8.e } P w @ `.`.",
"`.`.  P e.P.t.t.J.Y.E.E.Y.Y.R.!.!.!.!.R.Y.Y.E.R.P.t.a.e.P   `.`.",
"`.`.  <.P.Q.~.!.Y.P.t.i.Y.Y.a.a.u.u.u.a.P.P.u.P.R.~.Q.P.8.  `.`.",
"`.`.  <.p.~._.G.6.| } <.3.8.4.3.4.4.4.4.4.4.3.7.G._.~.u.<.  `.`.",
"`.`.  <.p.!./.N.a       - r r y t t t r r r = N B.^.!.p.<.  `.`.",
"`.`.  <.p.!.^.N.a         = - y t t t t r r = N B.^.!.p.<.  `.`.",
"`.`.  <.p.E._.G.6.e 1.,.1.,.4.8.4.4.4.4.8.3.3.F.G._.E.i.<.  `.`.",
"`.`.  <.J.Q.!.T.K.L.L.L.L.K.P.Y.Y.Y.K.K.K.K.K.K.T.!.W.J.<.  `.`.",
"`.`.  >.r.U.s.s.U.U.U.U.I.I.P.L.J.P.I.U.U.U.U.I.s.s.I.r.1.  `.`.",
"`.`.X [ 9.w.q.q.q.q.q.q.q.0.2.L L 2.0.q.q.q.q.q.q.q.w.9.[ X `.`.",
"`.`.# 5 {  .X.X.X.X.X.O.@. .` * * `  .@.O.o.o.X.+.+. .{ 5 # `.`.",
"`.`.`.`.5 q ' *.*.*.v :.$.&.#.....#.&.$.:.v -.-.-.=.' 6 `.`.`.`.",
"`.`.`.`.  < b Z Z S a v ;.%.5.5.5.%.%.;.K u p i i p ;   `.`.`.`.",
"`.`.`.`.  b ! h.g.) G h c *.-.=.=.=.=.c z f f j j k : o `.`.`.`.",
"`.`.`.`.  m ( x.x.h.Q F W Z Z Z Z Z Z A U U U U H j 3 O `.`.`.`.",
"`.`.`.`.  m g.l.l.l.h.h.g.g.h.f.d.f.g.h.f.h.k._ T d 3 O `.`.`.`.",
"`.`.`.`.  n ! g.( ( ( g.( d.d.d.d.g.d.d.d.g.g./ F 0 1 O `.`.`.`.",
"`.`.`.`.$ : n m M m m m m m m m m m m m m m m M 4 1 > % `.`.`.`.",
"`.`.`.`.% $                                       + % % `.`.`.`.",
"`.`.`.`.`.`.`.`.`.`.`.`.`.`.`.`.`.`.`.`.`.`.`.`.`.`.`.`.`.`.`.`.",
"`.`.`.`.`.`.`.`.`.`.`.`.`.`.`.`.`.`.`.`.`.`.`.`.`.`.`.`.`.`.`.`."
};
