/* XPM */
static char *result[] = {
/* columns rows colors chars-per-pixel */
"32 32 154 2 ",
"   c black",
".  c #000C00",
"X  c #001406",
"o  c #00150A",
"O  c #241E2A",
"+  c #311A28",
"@  c #35123A",
"#  c #002129",
"$  c #142228",
"%  c #003839",
"&  c #163E34",
"*  c #24222A",
"=  c #29242C",
"-  c #372329",
";  c #3D252D",
":  c #2B2932",
">  c #392A34",
",  c #372B37",
"<  c #273E3B",
"1  c #560000",
"2  c #5A0000",
"3  c #600000",
"4  c #6F0916",
"5  c #4B1D2B",
"6  c #441C2A",
"7  c #4F0033",
"8  c #621F22",
"9  c #740038",
"0  c #7D173F",
"q  c #45252E",
"w  c #49252E",
"e  c #472631",
"r  c #4C2A34",
"t  c #4A2A36",
"y  c #512A34",
"u  c #6A2329",
"i  c #76262D",
"p  c #78272E",
"a  c #642F3E",
"s  c #7F2931",
"d  c #762B31",
"f  c #3B3446",
"g  c #572844",
"h  c #5F2E46",
"j  c #522743",
"k  c #433449",
"l  c #4A3649",
"z  c #45394C",
"x  c #4C384C",
"c  c #51384C",
"v  c #59384C",
"b  c #53364A",
"n  c #4D3C51",
"m  c #473C52",
"M  c #543C53",
"N  c #5C3C53",
"B  c #653446",
"V  c #78334A",
"C  c #77384C",
"Z  c #7C3A4F",
"A  c #763447",
"S  c #623D53",
"D  c #683F56",
"F  c #733D54",
"G  c #7C3D55",
"H  c #484151",
"J  c #414653",
"K  c #6C415A",
"L  c #75445C",
"P  c #596B6E",
"I  c #656166",
"U  c #64646D",
"Y  c #616D72",
"T  c #7D7179",
"R  c #810039",
"E  c #8D303E",
"W  c #B6303E",
"Q  c #DE0007",
"!  c #DE000F",
"~  c #E1001A",
"^  c #E8002C",
"/  c #CE283B",
"(  c #D22437",
")  c #8A3A4F",
"_  c #843D54",
"`  c #8A3D55",
"'  c #843F58",
"]  c #973A50",
"[  c #A53D54",
"{  c #AA3D55",
"}  c #AE3F5A",
"|  c #D61D41",
" . c #C02D41",
".. c #DF2E44",
"X. c #CC3545",
"o. c #D5374B",
"O. c #D5394D",
"+. c #CE3C52",
"@. c #DB3C51",
"#. c #E02E44",
"$. c #E3394D",
"%. c #E83B4F",
"&. c #E53045",
"*. c #E03C50",
"=. c #F13C51",
"-. c #824059",
";. c #8B4159",
":. c #93435C",
">. c #9D4058",
",. c #A64C5F",
"<. c #986B75",
"1. c #987078",
"2. c #C9626A",
"3. c #DE7278",
"4. c #6E7D80",
"5. c #707D81",
"6. c #E47E88",
"7. c #E27B84",
"8. c #898E8F",
"9. c #89908F",
"0. c #8A9B98",
"q. c #AB9C99",
"w. c #8CA69F",
"e. c #9DACA7",
"r. c #9AB2AB",
"t. c #A0AEA9",
"y. c #A5B8B3",
"u. c #C8BDBB",
"i. c #B1C4BF",
"p. c #C6BFC6",
"a. c #B5C6C2",
"s. c #B7C9C5",
"d. c #B7CFC9",
"f. c #BDCDC9",
"g. c #B9CAC6",
"h. c #BDD1CC",
"j. c #BCD9D5",
"k. c #C0D0CD",
"l. c #C2D4D0",
"z. c #D8D6DA",
"x. c #DADDDF",
"c. c #E4CDD2",
"v. c #EED3DB",
"b. c #F2D6DE",
"n. c #E7DFE7",
"m. c #E5E1E7",
"M. c #E6E4E8",
"N. c #E9E6EB",
"B. c #E7EBF0",
"V. c #F7EFF6",
"C. c #F8EFF7",
"Z. c #F5F3F9",
"A. c #FBF4FC",
"S. c None",
/* pixels */
"S.S.S.S.S.S.S.S.S.S.S.S.S.S.S.S.S.S.S.S.S.S.S.S.S.S.S.S.S.S.S.S.",
"S.S.S.S.S.S.S.S.S.S.S.S.S.S.S.S.S.S.S.S.S.S.S.S.S.S.S.S.S.S.S.S.",
"S.S.S.S.S.S.S.S.X o o o o o o o o o o o o o o . S.S.S.S.S.S.S.S.",
"S.S.S.S.S.S.S.S.8 E d i d d i i d i d d i i E u S.S.S.S.S.S.S.S.",
"S.S.S.S.S.S.. 8 W o.X.X.X.X.X.X.X.X.X.X.X.X.o.{ 8 . S.S.S.S.S.S.",
"S.S.S.S.S.S.# E o.=.%.%.$.%.%.%.%.%.%.%.%.%.=.o.E # S.S.S.S.S.S.",
"S.S.S.S.X ; B [ +.%.$.$.$.$.$.$.*.$.$.$.*.$.$.O.[ B ; X S.S.S.S.",
"S.S.S.S.X r G } O.&.#.............#...#...#.&.o.} G r X S.S.S.S.",
"S.S.S.S.X t F { | ^ ~ Q ! ! ! ! ! ! ! Q Q ~ ^ | { F e o S.S.S.S.",
"S.S.S.S.X e V ,.2.3.7.6.6.6.6.6.6.6.6.q.6.7.3.2.,.V e X S.S.S.S.",
"S.S.S.S.X 5 0 <.q.u.c.b.v.v.v.v.b.b.v.v.b.c.u.q.<.R w X S.S.S.S.",
"S.S.S.S.X 5 R 1.r.j.B.A.Z.Z.Z.Z.C.C.Z.Z.A.B.j.r.<.R w X S.S.S.S.",
"S.S.S.S.X 5 R 1.e.l.N.A.V.V.V.V.C.C.C.C.A.N.l.e.1.R 5 o S.S.S.S.",
"S.S.S.S.X 6 9 1.t.h.x.M.m.m.m.N.N.M.m.m.M.x.h.t.1.9 6 X S.S.S.S.",
"S.S.S.S.o + 7 T y.d.g.g.a.g.k.l.l.k.g.i.s.s.d.y.T 7 + X S.S.S.S.",
"S.S.S.S.o O @ U 0.y.a.f.f.i.r.w.w.e.i.k.f.a.y.0.U @ = X S.S.S.S.",
"S.S.S.S.X = k n < 9.z.Z.Z.z.8.& & 9.z.A.V.z.8.< n k = o S.S.S.S.",
"S.S.S.S.o > v g   I p.n.m.p.I     I k.m.n.k.I   g S > X S.S.S.S.",
"S.S.S.S.X t Z _ j J Y 4.5.P %     % P T 4.Y J j G _ e X S.S.S.S.",
"S.S.S.S.X y ) :.L h 2 2 2 3 4 d d 4 2 1 2 2 h L ` ) y X S.S.S.S.",
"S.S.S.S.X y ` :.;.] { ( / / X.X.X.X./ / (  .] -.:.` y X S.S.S.S.",
"S.S.S.S.X q A ` ' { O.&.@.@.@.@.@.$.@.@.*.+.{ ' ` A q X S.S.S.S.",
"S.S.S.S.S.S.+ a ) ,.{ { [ [ } [ { [ { [ } [ >._ a - S.S.S.S.S.S.",
"S.S.S.S.S.S.. - A ` L G G G G G G G G G G G ;.C - . S.S.S.S.S.S.",
"S.S.S.S.X X . = b S S N N N N N N N M N N S S b = . X X S.S.S.S.",
"S.S.S.S.= : * , v N M n N S S N S S S N n M N v , * : = S.S.S.S.",
"S.S.o = f z f v _ _ N N G ` ;.` ` ` ;._ N N _ _ v f z f = o S.S.",
"S.S.o , S K D K _ _ S N _ ` ` ` ` ` ` G N S _ ' F D K N , X S.S.",
"S.S.X r G :.:.' F N M M S K S K D K S S M v N F ' ;.:._ t X S.S.",
"S.S.X e A ) ) Z M n M M x x z k k z n n M M n M Z ) ` V e X S.S.",
"S.S.S.S.w r w r c M M M M x , * $ , x M M M M b r w r e S.S.S.S.",
"S.S.S.S.o X . $ l N M N H x = . . = l M M M M l $ X o o S.S.S.S."
};
