/* XPM */
static char *result[] = {
/* columns rows colors chars-per-pixel */
"32 32 88 1 ",
"  c #000700",
". c #000900",
"X c #001306",
"o c #00150A",
"O c #001915",
"+ c #001C1D",
"@ c #131A1B",
"# c #321E22",
"$ c #002129",
"% c #192224",
"& c #122228",
"* c #232126",
"= c #26232A",
"- c #2A252D",
"; c #3F2026",
": c #35272F",
"> c #3D252D",
", c #2C2730",
"< c #242934",
"1 c #2F2931",
"2 c #312A34",
"3 c #3F2834",
"4 c #3B303E",
"5 c #621F22",
"6 c #43242C",
"7 c #48242C",
"8 c #4A2730",
"9 c #462832",
"0 c #4B2833",
"q c #432B38",
"w c #4A2B38",
"e c #512B35",
"r c #5E2A37",
"t c #6A2329",
"y c #76262D",
"u c #78272E",
"i c #622C3A",
"p c #7F2931",
"a c #3F3243",
"s c #433243",
"d c #43374A",
"f c #4B374A",
"g c #47394D",
"h c #4B394E",
"j c #5A374A",
"k c #513A4F",
"l c #4D3D53",
"z c #543D54",
"x c #5D3C53",
"c c #653446",
"v c #743447",
"b c #75374B",
"n c #76394F",
"m c #7B394E",
"M c #633D53",
"N c #693F57",
"B c #773A50",
"V c #7C3C53",
"C c #5B4159",
"Z c #6D425A",
"A c #71445D",
"S c #8D303E",
"D c #B6303E",
"F c #82394E",
"G c #853E56",
"H c #8E3E56",
"J c #803F58",
"K c #8C3F58",
"L c #913E56",
"P c #9A3E56",
"I c #A43D54",
"U c #AA3F57",
"Y c #AA3F58",
"T c #B73C52",
"R c #CB3545",
"E c #D53749",
"W c #D43A4E",
"Q c #DC394D",
"! c #C53B51",
"~ c #D33B50",
"^ c #E2394C",
"/ c #E83A4E",
"( c #F13C51",
") c #8A4058",
"_ c #944059",
"` c #99425C",
"' c #AD415A",
"] c None",
/* pixels */
"]]]]]]]]]]]]]]]]]]]]]]]]]]]]]]]]",
"]]]]]]]]]]]]]]]]]]]]]]]]]]]]]]]]",
"]]]]]]]]oOoOoOooOoOoOooo]]]]]]]]",
"]]]]]]]]tpuyyyyyyyyyyupt]]]]]]]]",
"]]]]]].5DERRRRRRRRRRRRED5.]]]]]]",
"]]]]]]$SE(////////////(WS$]]]]]]",
"]]]]X>cI~/^^^^^^^^^^^^/~Ic>X]]]]",
"]]]]XwV'~/^^^Q^^Q^^^^^/~'Vwo]]]]",
"]]]]o8BYW^^^^^QQ^QQ^^^^WUm9X]]]]",
"]]]]X9nU~^^^^Q^^^^^^^^/WUn9o]]]]",
"]]]]o9nUQ^^^^^^^^QQ^Q^/WUB9X]]]]",
"]]]]X9mU!Q^^^^^^^^^^^^Q!IB9o]]]]",
"]]]]o8m_PTQ/^/^^^^^//QTP_F8o]]]]",
"]]]]o0F_)P!WWWWWEWWEQ!PV_F0X]]]]",
"]]]]X0F_GLIIIIIIIIIIUPLK_F0o]]]]",
"]]]]o8F_HHGGGGGGGGGGGGHLLF8o]]]]",
"]]]]X0F_LLHHHHHHHHHHHHHL_F0X]]]]",
"]]]]X0F_HHHLHHHLLHLHHLLH_F0o]]]]",
"]]]]o0F_LHHHLHLHLHHLLHHL_F8X]]]]",
"]]]]X0FPLLLHLHHLHLHHHHLL_F7X]]]]",
"]]]]oeG_LHHLLLLHLHLHHLL_`F7XO@]]",
"]]]]X6vHHLLHLLLHLLHLHLLLHvw&%@]]",
"]]]]]]#iH_LLLLLLL_LLLL_Fr>ff1O]]",
"]]]]]]+qbHGGGGGGGGGGGG)b#+ff-X]]",
"]]]]o-skxMNMMxxxxxxxxMNj-O,-]]]]",
"]]]]o2kCzhdfxMxMMMMMMxzd-ooX]]]]",
"]]]]o2kCCh,wmHKGGGGG)VMd-o]]]]]]",
"]]]]o=skks+#m)KKHGKGK)Mf,o]]]]]]",
"]]]]]]=22=O2MZZZNNMNMMxf1o]]]]]]",
"]]]]]]ooooo,dllhshhllzzk1o]]]]]]",
"]]]]]]]]]]]]]]]]*4zCCCCz2o]]]]]]",
"]]]]]]]]]]]]]]]].*fCzzzf-o]]]]]]"
};
