/* XPM */
static char *result[] = {
/* columns rows colors chars-per-pixel */
"32 32 161 2 ",
"   c #000100",
".  c #000B00",
"X  c #001406",
"o  c #00150B",
"O  c #001511",
"+  c #001D19",
"@  c #201D1D",
"#  c #131D20",
"$  c #191F22",
"%  c #3C1F24",
"&  c #002129",
"*  c #1D242B",
"=  c #1C2725",
"-  c #0F372E",
";  c #1E2833",
":  c #003837",
">  c #24232B",
",  c #2B262E",
"<  c #352127",
"1  c #3C242C",
"2  c #3F2224",
"3  c #202833",
"4  c #382C37",
"5  c #4E0000",
"6  c #560000",
"7  c #5E0106",
"8  c #610000",
"9  c #760618",
"0  c #451323",
"q  c #75002D",
"w  c #621F22",
"e  c #46232B",
"r  c #4B2933",
"t  c #4D2B38",
"y  c #522D39",
"u  c #6B2329",
"i  c #672023",
"p  c #76262D",
"a  c #78272E",
"s  c #6D2A30",
"d  c #7F2931",
"f  c #11473E",
"g  c #3F3445",
"h  c #3F3548",
"j  c #4D3547",
"k  c #43364A",
"l  c #4B384C",
"z  c #59364A",
"x  c #54394D",
"c  c #5A394D",
"v  c #4B3C52",
"b  c #533B50",
"n  c #5F3D55",
"m  c #643447",
"M  c #683241",
"N  c #7A354A",
"B  c #7B394E",
"V  c #733345",
"C  c #643D54",
"Z  c #6B3F57",
"A  c #7C3E56",
"S  c #185F59",
"D  c #505C5C",
"F  c #525051",
"G  c #625F64",
"H  c #58676B",
"J  c #67706F",
"K  c #797579",
"L  c #8D002F",
"P  c #9B002B",
"I  c #990029",
"U  c #A1003C",
"Y  c #952F3A",
"T  c #8E303D",
"R  c #91303E",
"E  c #BB2031",
"W  c #B6303E",
"Q  c #CD2539",
"!  c #CE2A3C",
"~  c #D02B3E",
"^  c #8C0C43",
"/  c #8C1344",
"(  c #8D234A",
")  c #81394E",
"_  c #89324B",
"`  c #8E3752",
"'  c #843D54",
"]  c #8E3D56",
"[  c #883F58",
"{  c #913E56",
"}  c #9E3E56",
"|  c #BE3140",
" . c #A63753",
".. c #A53D54",
"X. c #AB3D55",
"o. c #B33B51",
"O. c #A42348",
"+. c #D22F47",
"@. c #CB3545",
"#. c #C53447",
"$. c #D33449",
"%. c #D4394D",
"&. c #D63344",
"*. c #CA3C52",
"=. c #DC3C51",
"-. c #D43E54",
";. c #E6394C",
":. c #EA3B4E",
">. c #E03C50",
",. c #F23C51",
"<. c #844A5B",
"1. c #93405A",
"2. c #99415B",
"3. c #AC425B",
"4. c #89646E",
"5. c #91656F",
"6. c #946D75",
"7. c #95727B",
"8. c #9C747F",
"9. c #717E81",
"0. c #837F83",
"q. c #9F7D88",
"w. c #7E9790",
"e. c #87888A",
"r. c #8B9091",
"t. c #989E9B",
"y. c #A4808D",
"u. c #AF8491",
"i. c #8EA9A2",
"p. c #9DACA7",
"a. c #9CB1AB",
"s. c #95B2AC",
"d. c #9FB7B1",
"f. c #A0AEA9",
"g. c #A9B5B1",
"h. c #B5BEBC",
"j. c #B2C2BE",
"k. c #C5BFC5",
"l. c #B4C6C2",
"z. c #BCCDC9",
"x. c #BACAC7",
"c. c #BBD2CC",
"v. c #CDC0C7",
"b. c #C2D2CF",
"n. c #D3CFD3",
"m. c #C4D6D2",
"M. c #C3D9D5",
"N. c #D8D6DA",
"B. c #E1D5DC",
"V. c #DCDEE1",
"C. c #E2DBE2",
"Z. c #E9DBE3",
"A. c #E5E1E7",
"S. c #EAE6EC",
"D. c #E6E4E8",
"F. c #EDEBF0",
"G. c #F8EFF6",
"H. c #F7F3F8",
"J. c #FBF4FB",
"K. c #FFFBFF",
"L. c None",
/* pixels */
"L.L.L.L.L.L.L.L.L.L.L.L.L.L.L.L.L.L.L.L.L.L.L.L.L.L.L.L.L.L.L.L.",
"L.L.L.L.L.L.L.L.L.L.L.L.L.L.L.L.L.L.L.L.L.L.L.L.L.L.L.L.L.L.L.L.",
"L.L.L.L.L.L.L.L.o o O o O o O o O o O O o o o o L.L.L.L.L.L.L.L.",
"L.L.L.L.L.L.L.L.u d a p a a a a p p p p p p T u L.L.L.L.L.L.L.L.",
"L.L.L.L.L.L.. w W $.&.@.@.@.@.@.@.@.@.@.@.@.&.W i . L.L.L.L.L.L.",
"L.L.L.L.L.L.& T $.,.,.:.;.:.:.:.:.:.:.:.:.:.,.%.T & L.L.L.L.L.L.",
"L.L.L.L.X 1 m  .%.:.;.;.;.;.;.;.;.;.;.;.:.;.:.%.3.z 1 X L.L.L.L.",
"L.L.L.L.o r B  .#.+.+.+.+.$.$.%.%.%.%.%.*.%.%.*.3.B t X L.L.L.L.",
"L.L.L.L.+ 0 q L P P P P P P U O. ..... ..... ...2.) r X L.L.L.L.",
"L.L.L.L.  F 8.u.y.y.y.y.y.q.8.4.<.' ' ' ' ' ' <.1.) r X L.L.L.L.",
"L.L.L.L.  K k.Z.B.B.B.B.B.n.j.t.5.( ] [ 1.{ ] { 1.) r X L.L.L.L.",
"L.L.L.L.  0.Z.K.J.J.H.G.J.F.M.a.7.^ ` { { [ ] { 1.) r X L.L.L.L.",
"L.L.L.L.  0.C.K.G.G.G.G.J.S.b.p.6./ ` { 1.[ ] ] { ) r X L.L.L.L.",
"L.L.L.L.  K n.F.D.A.A.D.S.V.c.f.6./ ` ] ] { ] { { ' r X L.L.L.L.",
"L.L.L.L.  J j.m.x.l.l.l.b.b.c.g.7.^ ` { { ] { { 2.) r X L.L.L.L.",
"L.L.L.L.  D w.d.j.c.b.j.a.i.s.t.5.( ` ] ] { ] { { ) r X L.L.L.L.",
"L.L.L.L.  = - r.N.H.H.N.r.f S D <.{ { { ] ] ] ] 1.) r X L.L.L.L.",
"L.L.L.L.=     G k.A.A.v.G   6 9 _ 1.1.` ] 1.] 1.1.) r X L.L.L.L.",
"L.L.L.L.@ O   : H w.9.H : 5 E #. .<.] ] ] ] ] ] 1.) r X L.L.L.L.",
"L.L.L.L.+ e s 9 6 5 6 6 7 Y %.-...[ ] ] ] ] 1.] 1.) r X L.L.L.L.",
"L.L.L.L.O p | %.! Q Q ! +.@.o...{ ] ] ] ] { ] 1.2.] y X L.L.L.L.",
"L.L.L.L.X p | >.=.=.=.=.>.*.2.A [ { { ] ] { ] ] ] V e X L.L.L.L.",
"L.L.L.L.L.L.i R  .X.X.X.X...{ { { { { { { 1.2.] s , L.L.L.L.L.L.",
"L.L.L.L.L.L.. & m A A A A A ' [ ' ' ] [ ' ' ] V % . L.L.L.L.L.L.",
"L.L.L.L.L.L.L.L.1 t c n C C C C C C Z C C c y e L.L.L.L.L.L.L.L.",
"L.L.L.L.L.L.L.L.. * x C v h v v v v k l n z * . L.L.L.L.L.L.L.L.",
"L.L.L.L.L.L.L.L.X r ) ) r ; k v v k ; r A ) r X L.L.L.L.L.L.L.L.",
"L.L.L.L.L.L.L.L.X r ' B 2 # z Z Z z # % ) ' r X L.L.L.L.L.L.L.L.",
"L.L.L.L.L.L.L.L.o 4 C C # % A 1.1.B % $ n C 4 o L.L.L.L.L.L.L.L.",
"L.L.L.L.L.L.L.L.X > k h 3 r N ' ' N r ; h h > o L.L.L.L.L.L.L.L.",
"L.L.L.L.L.L.L.L.L.L.> 4 k j t e e r j k 4 > L.L.L.L.L.L.L.L.L.L.",
"L.L.L.L.L.L.L.L.L.L.. , x x * . . * x x , . L.L.L.L.L.L.L.L.L.L."
};
