/* XPM */
static char *result[] = {
/* columns rows colors chars-per-pixel */
"32 32 160 2 ",
"   c #000000",
".  c #000B00",
"X  c #001407",
"o  c #00150B",
"O  c #00180F",
"+  c #001511",
"@  c #001D19",
"#  c #201D1D",
"$  c #00222A",
"%  c #1C2725",
"&  c #0F372E",
"*  c #003838",
"=  c #003736",
"-  c #242126",
";  c #2B242B",
":  c #27242B",
">  c #372228",
",  c #3B252C",
"<  c #3F2224",
"1  c #2E2831",
"2  c #392E3B",
"3  c #372A35",
"4  c #4E0000",
"5  c #5A0000",
"6  c #610106",
"7  c #760618",
"8  c #451323",
"9  c #75002D",
"0  c #621F22",
"q  c #45252E",
"w  c #4C2833",
"e  c #4C2733",
"r  c #512B35",
"t  c #6B2329",
"y  c #76262D",
"u  c #78272E",
"i  c #712025",
"p  c #652F3E",
"a  c #6D2A30",
"s  c #7F2931",
"d  c #11473E",
"f  c #3D374B",
"g  c #443243",
"h  c #4C374B",
"j  c #46384C",
"k  c #4E394D",
"l  c #5B374B",
"z  c #503A4F",
"x  c #4D3C53",
"c  c #473C52",
"v  c #543C53",
"b  c #5A3E55",
"n  c #5A3F58",
"m  c #643447",
"M  c #743446",
"N  c #76394E",
"B  c #7C364D",
"V  c #643D53",
"C  c #6A3E55",
"Z  c #7C3D53",
"A  c #7A3F57",
"S  c #185F59",
"D  c #5A454C",
"F  c #4A5A56",
"G  c #505C5C",
"H  c #625F64",
"J  c #58676B",
"K  c #67706F",
"L  c #797579",
"P  c #8D002F",
"I  c #9B002B",
"U  c #990029",
"Y  c #A1003C",
"T  c #812D3A",
"R  c #962F3A",
"E  c #8E303D",
"W  c #BB2031",
"Q  c #B6303E",
"!  c #CF2539",
"~  c #D12B3D",
"^  c #8C0C43",
"/  c #8C1344",
"(  c #8D234A",
")  c #82394E",
"_  c #89324B",
"`  c #8E3752",
"'  c #843D55",
"]  c #8E3D55",
"[  c #893F58",
"{  c #913E56",
"}  c #963F58",
"|  c #A42348",
" . c #BF3241",
".. c #A63753",
"X. c #A43D54",
"o. c #B63C52",
"O. c #D22F47",
"+. c #CB3545",
"@. c #C63447",
"#. c #D33449",
"$. c #D4394D",
"%. c #DC3A4E",
"&. c #D83345",
"*. c #C63C51",
"=. c #D53C51",
"-. c #E7394C",
";. c #EA3B4E",
":. c #F23C51",
">. c #844A5B",
",. c #894058",
"<. c #944059",
"1. c #9A425B",
"2. c #A9425B",
"3. c #89646E",
"4. c #91656F",
"5. c #946D75",
"6. c #95727B",
"7. c #9C747F",
"8. c #717E81",
"9. c #837F83",
"0. c #9F7D88",
"q. c #7E9790",
"w. c #87888A",
"e. c #8B9091",
"r. c #989E9B",
"t. c #A4808D",
"y. c #AF8491",
"u. c #8EA9A2",
"i. c #9DACA7",
"p. c #9CB1AB",
"a. c #95B2AC",
"s. c #9FB7B1",
"d. c #A0AEA9",
"f. c #A9B5B1",
"g. c #B5BEBC",
"h. c #B2C2BE",
"j. c #C5BFC5",
"k. c #B4C6C2",
"l. c #BCCDC9",
"z. c #BACAC7",
"x. c #BBD2CC",
"c. c #CDC0C7",
"v. c #C2D2CF",
"b. c #D3CFD3",
"n. c #C4D6D2",
"m. c #C3D9D5",
"M. c #D8D6DA",
"N. c #E1D5DC",
"B. c #DCDEE1",
"V. c #E2DBE2",
"C. c #E9DBE3",
"Z. c #E5E1E7",
"A. c #EAE6EC",
"S. c #E6E4E8",
"D. c #EDEBF0",
"F. c #F8EFF6",
"G. c #F7F3F8",
"H. c #FBF4FB",
"J. c #FFFBFF",
"K. c None",
/* pixels */
"K.K.K.K.K.K.K.K.K.K.K.K.K.K.K.K.K.K.K.K.K.K.K.K.K.K.K.K.K.K.K.K.",
"K.K.K.K.K.K.K.K.K.K.K.K.K.K.K.K.K.K.K.K.K.K.K.K.K.K.K.K.K.K.K.K.",
"K.K.K.K.K.K.K.K.K.K.K.K.K.K.K.K.K.K.K.K.K.K.K.K.K.K.K.K.K.K.K.K.",
"K.K.K.K.K.K.K.K.K.K.K.K.K.K.K.K.K.K.K.K.K.K.K.K.K.K.K.K.K.K.K.K.",
"K.K.K.K.K.K.K.K.o o o O o O O + O O O O o o o O K.K.K.K.K.K.K.K.",
"K.K.K.K.K.K.K.K.t T u u u u u u y u u u y u s t K.K.K.K.K.K.K.K.",
"K.K.K.K.K.K.. 0 Q #.+.+.+.+.@.+.+.+.+.+.+.+.#.Q 0 . K.K.K.K.K.K.",
"K.K.K.K.K.K.$ E $.:.;.;.;.-.;.;.;.;.-.;.;.;.:.%.E $ K.K.K.K.K.K.",
"K.K.K.K.X , m ..%.;.;.-.-.-.-.-.-.-.-.-.-.;.;.=...m , o K.K.K.K.",
"K.K.K.K.o e B ..@.O.O.O.O.#.#.#.$.=.=.=.$.$.$.*.2.Z w X K.K.K.K.",
"K.K.K.K.@ 8 9 P U I I I U I Y | ..X.X.X.X.X.X.X.1.) w X K.K.K.K.",
"K.K.K.K.  D 0.y.t.t.t.0.t.0.6.3.>.' ' ' ' ' ' ,.{ ) w o K.K.K.K.",
"K.K.K.K.  L j.C.N.N.N.N.N.b.g.r.4.( ` [ ] ] ] ] <.) w X K.K.K.K.",
"K.K.K.K.  9.V.J.H.H.G.H.J.D.m.d.5.^ ` ] ] <.<.] <.) w X K.K.K.K.",
"K.K.K.K.  w.N.J.F.F.F.F.H.D.v.d.5./ ` ] { ] ] { <.) w X K.K.K.K.",
"K.K.K.K.  L b.D.S.Z.Z.Z.A.M.x.d.5./ ` ] ] { ] ] <.) w o K.K.K.K.",
"K.K.K.K.  K h.m.l.k.k.z.v.n.x.f.6.^ ` { ] ] ] ] <.' w o K.K.K.K.",
"K.K.K.K.  F e.s.k.l.l.k.p.u.a.r.4.( ` { <.] ] <.<.B w X K.K.K.K.",
"K.K.K.K.  % & e.M.G.G.M.e.d S G >.{ { ] ] ] ] <.<.) w X K.K.K.K.",
"K.K.K.K.% .   H c.Z.V.j.H   4 7 _ <.] { <.] ] ] <.) w X K.K.K.K.",
"K.K.K.K.# +   * J q.K J * 4 W @.X.' <.] ] ] { { <.) w X K.K.K.K.",
"K.K.K.K.@ < a 7 5 5 5 5 6 R $.=.X.' ] ] ] <.] ] <.) e o K.K.K.K.",
"K.K.K.K.+ y @.&.~ ! ! O.~ +.o.} { ] ] ] ] ] ] <.1.' r X K.K.K.K.",
"K.K.K.K.O t  .%.$.=.=.$.%.*.{ A ] { <.] ] <.] ] ` M q X K.K.K.K.",
"K.K.K.K.K.K.i T B ' ' ) ' Z V C ] { { { { { { ` p > K.K.K.K.K.K.",
"K.K.K.K.K.K.. $ f D x x x x c b Z ' ] ' [ ' [ N , . K.K.K.K.K.K.",
"K.K.K.K.K.K.X 3 N ,.' ' ] ,.V v V V V V V V C l ; . K.K.K.K.K.K.",
"K.K.K.K.K.K.X r ) 1.<.{ ' B l j x x x x x x x j 2 - K.K.K.K.K.K.",
"K.K.K.K.K.K.o r ' 1.1.] p , ; 2 k v v v v v v k z g ; o K.K.K.K.",
"K.K.K.K.K.K.X q M ` ] M > . . - g v v v v v v v D z 1 o K.K.K.K.",
"K.K.K.K.K.K.K.K.q e w q K.K.K.K.- 2 k v v v v v n k 1 o K.K.K.K.",
"K.K.K.K.K.K.K.K.O O O O K.K.K.K.. : k v v v v v n h 1 o K.K.K.K."
};
