/* XPM */
static char *result[] = {
/* columns rows colors chars-per-pixel */
"32 32 159 2 ",
"   c #000100",
".  c #000B00",
"X  c #001305",
"o  c #00150B",
"O  c #001412",
"+  c #001D19",
"@  c #201D1D",
"#  c #131D20",
"$  c #191F22",
"%  c #3C1F24",
"&  c #002129",
"*  c #1D242B",
"=  c #1C2625",
"-  c #0E372D",
";  c #1E2833",
":  c #003837",
">  c #24232B",
",  c #2B262E",
"<  c #352127",
"1  c #3C242C",
"2  c #3F2224",
"3  c #202833",
"4  c #382C37",
"5  c #4E0000",
"6  c #560000",
"7  c #5E0106",
"8  c #610000",
"9  c #760618",
"0  c #441323",
"q  c #75002D",
"w  c #641F22",
"e  c #46232B",
"r  c #4B2933",
"t  c #4D2B38",
"y  c #522D39",
"u  c #6B2329",
"i  c #76262D",
"p  c #78272E",
"a  c #6D2A30",
"s  c #7F2931",
"d  c #11473E",
"f  c #3F3445",
"g  c #3F3548",
"h  c #4D3547",
"j  c #43364A",
"k  c #4B384C",
"l  c #59364A",
"z  c #54394D",
"x  c #5B394D",
"c  c #4B3C52",
"v  c #533B50",
"b  c #5F3D55",
"n  c #643447",
"m  c #683241",
"M  c #7A354A",
"N  c #7B394E",
"B  c #733446",
"V  c #643D54",
"C  c #6B3F57",
"Z  c #7C3E56",
"A  c #196059",
"S  c #505C5C",
"D  c #524F51",
"F  c #625F64",
"G  c #58676B",
"H  c #67706F",
"J  c #797579",
"K  c #8D002F",
"L  c #9B0029",
"P  c #990029",
"I  c #9C0030",
"U  c #A1003C",
"Y  c #952F3A",
"T  c #8E303D",
"R  c #91303E",
"E  c #BB2031",
"W  c #B6303E",
"Q  c #CD2539",
"!  c #CE2A3C",
"~  c #D02B3E",
"^  c #8C0D43",
"/  c #8C1344",
"(  c #8D234A",
")  c #81394E",
"_  c #89324B",
"`  c #843D54",
"'  c #8E3D55",
"]  c #883F58",
"[  c #913E56",
"{  c #9E3E56",
"}  c #A42248",
"|  c #BE3140",
" . c #A63753",
".. c #A53D54",
"X. c #AB3D55",
"o. c #B33B51",
"O. c #D22F47",
"+. c #CB3545",
"@. c #C53447",
"#. c #D33449",
"$. c #D4394D",
"%. c #D63344",
"&. c #CA3C52",
"*. c #DC3C51",
"=. c #D43E54",
"-. c #E6394C",
";. c #EA3B4E",
":. c #E03C50",
">. c #F23C51",
",. c #844A5B",
"<. c #93405A",
"1. c #99415B",
"2. c #AC425B",
"3. c #89646E",
"4. c #91656F",
"5. c #946D75",
"6. c #95727B",
"7. c #9C747F",
"8. c #717E81",
"9. c #837F83",
"0. c #9F7D88",
"q. c #7E9790",
"w. c #87888A",
"e. c #8A9090",
"r. c #989E9B",
"t. c #A4808D",
"y. c #AF8491",
"u. c #8EA9A2",
"i. c #9DACA7",
"p. c #9CB1AB",
"a. c #95B3AC",
"s. c #9FB7B1",
"d. c #A0AEA9",
"f. c #A9B5B1",
"g. c #B5BEBC",
"h. c #B2C2BE",
"j. c #C5BFC5",
"k. c #B4C6C2",
"l. c #BCCDC9",
"z. c #BACAC7",
"x. c #BBD2CC",
"c. c #CDC0C7",
"v. c #C2D2CF",
"b. c #D3CFD3",
"n. c #C4D6D2",
"m. c #C3D9D5",
"M. c #D8D6DA",
"N. c #E1D5DC",
"B. c #DCDEE1",
"V. c #E4DBE2",
"C. c #E5E1E7",
"Z. c #EBE6EC",
"A. c #E6E4E8",
"S. c #EDEBF0",
"D. c #F8EFF6",
"F. c #F7F3F8",
"G. c #FBF4FB",
"H. c #FFFBFF",
"J. c None",
/* pixels */
"J.J.J.J.J.J.J.J.J.J.J.J.J.J.J.J.J.J.J.J.J.J.J.J.J.J.J.J.J.J.J.J.",
"J.J.J.J.J.J.J.J.J.J.J.J.J.J.J.J.J.J.J.J.J.J.J.J.J.J.J.J.J.J.J.J.",
"J.J.J.J.J.J.J.J.o o O o O o o O o o o O o o o o J.J.J.J.J.J.J.J.",
"J.J.J.J.J.J.J.J.u s p p p p p p p p p p i i T u J.J.J.J.J.J.J.J.",
"J.J.J.J.J.J.. w W #.%.+.+.+.+.+.+.+.+.+.+.+.#.W w . J.J.J.J.J.J.",
"J.J.J.J.J.J.& T #.>.;.;.;.;.;.;.;.;.;.;.;.;.>.$.T & J.J.J.J.J.J.",
"J.J.J.J.X 1 n  .$.;.-.-.-.-.-.-.-.-.-.-.-.-.;.*. .n 1 o J.J.J.J.",
"J.J.J.J.o r Z 2.&.=.$.$.$.$.=.$.$.+.#.O.O.O.O.@. .M r o J.J.J.J.",
"J.J.J.J.X r ) 1......... ..... .} U U L P P L P K q 0 + J.J.J.J.",
"J.J.J.J.X r ) <.' ` ] ] ` ) ` ,.3.6.0.0.t.t.t.t.y.0.D   J.J.J.J.",
"J.J.J.J.X r ) <.' ' ' ' [ ' ( 4.r.g.b.V.N.N.N.N.V.j.J   J.J.J.J.",
"J.J.J.J.X r ) 1.] <.' ' [ ' ^ 5.p.n.S.H.F.F.F.F.H.V.9.  J.J.J.J.",
"J.J.J.J.o r ) [ [ ' ' ' ' ` / 5.i.v.Z.G.F.D.D.F.H.V.9.  J.J.J.J.",
"J.J.J.J.X r ) <.[ ' <.' ' ' / 5.d.x.B.Z.C.A.C.A.S.b.J   J.J.J.J.",
"J.J.J.J.X r ) <.[ [ ' ' ' _ ^ 6.f.x.v.v.z.k.k.x.n.g.H   J.J.J.J.",
"J.J.J.J.o r ) <.[ [ <.' [ ' ( 4.r.a.u.p.h.l.l.k.s.e.S   J.J.J.J.",
"J.J.J.J.X r ) <.' ' ' ' <.[ [ Z S A d e.M.F.F.M.e.- =   J.J.J.J.",
"J.J.J.J.X r ) <.' <.' ' ' <.<._ 9 6   F c.C.C.j.F     = J.J.J.J.",
"J.J.J.J.X r ) <.<.' ' <.' ' <.{ +.E 5 : G 8.q.G :   O @ J.J.J.J.",
"J.J.J.J.X r ) <.' ' ' ' <.' ` ..=.$.Y 7 6 6 6 8 9 a 2 + J.J.J.J.",
"J.J.J.J.o y ` 1.<.' ' ' ' ' ' [ { o.&.O.Q Q Q Q #.@.i O J.J.J.J.",
"J.J.J.J.X e B ' ' <.<.' <.' <.] Z { &.:.*.*.*.*.-.| u o J.J.J.J.",
"J.J.J.J.J.J.< n <.1.' ' ' [ [ [ [ [ ..X.X.X.2..._ w J.J.J.J.J.J.",
"J.J.J.J.J.J.. 1 a _ ) ,.` <.` ` ` ` Z Z Z Z ` n & . J.J.J.J.J.J.",
"J.J.J.J.J.J.J.J.0 y b V V C V V V V V V V z t 1 J.J.J.J.J.J.J.J.",
"J.J.J.J.J.J.J.J.. * z b k j c c c c j k b x * . J.J.J.J.J.J.J.J.",
"J.J.J.J.J.J.J.J.X r N ) t 3 k c D j ; r Z ) r X J.J.J.J.J.J.J.J.",
"J.J.J.J.J.J.J.J.o r ` ` 2 + x C C l # % ) ` r X J.J.J.J.J.J.J.J.",
"J.J.J.J.J.J.J.J.o 4 V x $ % N <.] M % $ V V 4 o J.J.J.J.J.J.J.J.",
"J.J.J.J.J.J.J.J.o , j f ; t B ' ' M r ; f j > X J.J.J.J.J.J.J.J.",
"J.J.J.J.J.J.J.J.J.J.> 4 j h t e e t h j 4 > J.J.J.J.J.J.J.J.J.J.",
"J.J.J.J.J.J.J.J.J.J.. , v k * . . $ v v , . J.J.J.J.J.J.J.J.J.J."
};
