/* XPM */
static char *result[] = {
/* columns rows colors chars-per-pixel */
"32 32 157 2 ",
"   c #000000",
".  c #000A00",
"X  c #001407",
"o  c #00150B",
"O  c #001412",
"+  c #001D19",
"@  c #201D1D",
"#  c #00222A",
"$  c #1C2625",
"%  c #0E372D",
"&  c #003838",
"*  c #003736",
"=  c #232126",
"-  c #2B242B",
";  c #372228",
":  c #3B252C",
">  c #3F2224",
",  c #322B35",
"<  c #392B38",
"1  c #3E313F",
"2  c #4E0000",
"3  c #5B0000",
"4  c #570000",
"5  c #610106",
"6  c #760618",
"7  c #441323",
"8  c #75002D",
"9  c #621F22",
"0  c #44252D",
"q  c #4C2833",
"w  c #4C2733",
"e  c #522B36",
"r  c #6B2329",
"t  c #76262D",
"y  c #78272E",
"u  c #712025",
"i  c #652F3E",
"p  c #6C2A30",
"a  c #7F2931",
"s  c #11473E",
"d  c #3D384C",
"f  c #443343",
"g  c #4B364A",
"h  c #4C394E",
"j  c #55384C",
"k  c #4C3C53",
"l  c #543C53",
"z  c #5A3E55",
"x  c #643447",
"c  c #733446",
"v  c #76394E",
"b  c #7C364D",
"n  c #643D53",
"m  c #6C3F57",
"M  c #7E3F56",
"N  c #196059",
"B  c #5A454C",
"V  c #5C425A",
"C  c #4A5955",
"Z  c #505C5C",
"A  c #625F64",
"S  c #58676B",
"D  c #67706F",
"F  c #797579",
"G  c #8D002F",
"H  c #9B0029",
"J  c #990029",
"K  c #9C0030",
"L  c #A1003C",
"P  c #812D3A",
"I  c #962F3A",
"U  c #8E303D",
"Y  c #BB2031",
"T  c #B6303E",
"R  c #CF2539",
"E  c #D12B3D",
"W  c #8C0D43",
"Q  c #8C1344",
"!  c #8D234A",
"~  c #82394E",
"^  c #89324B",
"/  c #843D55",
"(  c #8E3D55",
")  c #893F58",
"_  c #913E56",
"`  c #9D3E56",
"'  c #963F58",
"]  c #A42248",
"[  c #A63753",
"{  c #A53D54",
"}  c #B33B51",
"|  c #D22F47",
" . c #C13342",
".. c #CB3545",
"X. c #C8344A",
"o. c #D33449",
"O. c #D4394D",
"+. c #DB3A4E",
"@. c #D73345",
"#. c #C73C51",
"$. c #D53C51",
"%. c #E7394C",
"&. c #EA3B4E",
"*. c #F23C51",
"=. c #854058",
"-. c #844A5B",
";. c #8A4058",
":. c #944059",
">. c #9A425B",
",. c #A9425B",
"<. c #89646E",
"1. c #91656F",
"2. c #946D75",
"3. c #95727B",
"4. c #9C747F",
"5. c #717E81",
"6. c #837F83",
"7. c #9F7D88",
"8. c #7E9790",
"9. c #87888A",
"0. c #8A9090",
"q. c #989E9B",
"w. c #A4808D",
"e. c #AF8491",
"r. c #8EA9A2",
"t. c #9DACA7",
"y. c #9CB1AB",
"u. c #95B3AC",
"i. c #9FB7B1",
"p. c #A0AEA9",
"a. c #A9B5B1",
"s. c #B5BEBC",
"d. c #B2C2BE",
"f. c #C5BFC5",
"g. c #B4C6C2",
"h. c #BCCDC9",
"j. c #BACAC7",
"k. c #BBD2CC",
"l. c #CDC0C7",
"z. c #C2D2CF",
"x. c #D3CFD3",
"c. c #C4D6D2",
"v. c #C3D9D5",
"b. c #D8D6DA",
"n. c #E1D5DC",
"m. c #DCDEE1",
"M. c #E2DBE2",
"N. c #E9DBE3",
"B. c #E5E1E7",
"V. c #EBE6EC",
"C. c #E6E4E8",
"Z. c #EDEBF0",
"A. c #F8EFF6",
"S. c #F7F3F8",
"D. c #FBF4FB",
"F. c #FFFBFF",
"G. c None",
/* pixels */
"G.G.G.G.G.G.G.G.G.G.G.G.G.G.G.G.G.G.G.G.G.G.G.G.G.G.G.G.G.G.G.G.",
"G.G.G.G.G.G.G.G.G.G.G.G.G.G.G.G.G.G.G.G.G.G.G.G.G.G.G.G.G.G.G.G.",
"G.G.G.G.G.G.G.G.o o O o o O o o O o O o o o o o G.G.G.G.G.G.G.G.",
"G.G.G.G.G.G.G.G.r P y y t t y y y y y y t y P r G.G.G.G.G.G.G.G.",
"G.G.G.G.G.G.. 9 T o...........X.....X.......o.T 9 . G.G.G.G.G.G.",
"G.G.G.G.G.G.# U O.*.&.&.&.&.&.&.&.&.&.%.&.&.*.o.U # G.G.G.G.G.G.",
"G.G.G.G.X : x [ O.&.%.%.%.%.%.%.&.%.%.%.%.%.&.+.[ x : o G.G.G.G.",
"G.G.G.G.o q / ,.#.O.O.O.O.O.$.O.o...o.| o.| | X.[ b w o G.G.G.G.",
"G.G.G.G.X q ~ >.{ { { { { { { [ ] K K H H H H H G 8 7 + G.G.G.G.",
"G.G.G.G.X q ~ :.=./ ) ) / / / -.<.7.7.7.w.w.w.w.e.4.B   G.G.G.G.",
"G.G.G.G.X q ~ :._ ;.( ( ( ( Q 1.q.s.x.M.n.n.b.n.N.l.F   G.G.G.G.",
"G.G.G.G.o q ~ :.( ( ( ( _ ( Q 2.y.v.Z.D.D.D.S.D.F.M.9.  G.G.G.G.",
"G.G.G.G.o q b :._ ( ( ( ( ( Q 2.t.c.V.D.A.A.A.S.F.b.9.  G.G.G.G.",
"G.G.G.G.X q ~ :.( :.:.( ( ( Q 2.p.h.m.V.C.M.B.C.Z.x.F   G.G.G.G.",
"G.G.G.G.X q ~ :.( ;._ ( _ ^ W 4.a.k.c.z.k.g.g.k.c.s.D   G.G.G.G.",
"G.G.G.G.X q ~ :._ ( _ _ ( ( ! 1.q.u.r.y.d.h.h.g.i.0.C   G.G.G.G.",
"G.G.G.G.X q ~ :._ _ ;.( ( _ ( -.Z N s 0.b.S.S.b.0.% $   G.G.G.G.",
"G.G.G.G.X q ~ :._ _ _ ( _ _ _ ^ 6 2   A f.B.B.f.A     $ G.G.G.G.",
"G.G.G.G.X q ~ :.( ( _ _ ( ( ;.{ o.Y 2 * S 5.8.S &   O @ G.G.G.G.",
"G.G.G.G.X q ~ :._ ;._ ;.( ( / { $.@.^ 3 3 4 2 5 6 p > + G.G.G.G.",
"G.G.G.G.o e ( >.:._ ( _ ( _ ( ' >.} X.@.E R R E +. .t O G.G.G.G.",
"G.G.G.G.X 0 c / ( _ ( _ _ _ ( ;./ ` #.+.O.O.O.O.+. .r o G.G.G.G.",
"G.G.G.G.G.G.; i ~ :.' _ ' _ _ ' _ ( / b =.M / ~ P u G.G.G.G.G.G.",
"G.G.G.G.G.G.. : b ;.;.~ / / / / ( M z k B k k d # . G.G.G.G.G.G.",
"G.G.G.G.G.G.. - j m n n n n n n n m M ( / / =.v < X G.G.G.G.G.G.",
"G.G.G.G.G.G.= < h k k k k h k k d j b ( _ ' >.~ e X G.G.G.G.G.G.",
"G.G.G.G.o - f l l l l l l l z h < - : i ( >.>.( e X G.G.G.G.G.G.",
"G.G.G.G.o , h V l l l l l l l f = . . ; c / ( c 0 X G.G.G.G.G.G.",
"G.G.G.G.o , l V V V V V V l 1 = G.G.G.G.0 e e 0 G.G.G.G.G.G.G.G.",
"G.G.G.G.o - g V l l l l V g = . G.G.G.G.X o X X G.G.G.G.G.G.G.G.",
"G.G.G.G.G.G.G.G.G.G.G.G.G.G.G.G.G.G.G.G.G.G.G.G.G.G.G.G.G.G.G.G.",
"G.G.G.G.G.G.G.G.G.G.G.G.G.G.G.G.G.G.G.G.G.G.G.G.G.G.G.G.G.G.G.G."
};
