/* XPM */
static char *result[] = {
/* columns rows colors chars-per-pixel */
"32 32 198 2 ",
"   c #000900",
".  c #000A00",
"X  c #000D00",
"o  c #000E00",
"O  c #001000",
"+  c #001305",
"@  c #001306",
"#  c #001407",
"$  c #001309",
"%  c #001408",
"&  c #00140A",
"*  c #00150A",
"=  c #00160D",
"-  c #00170D",
";  c #00150E",
":  c #00160E",
">  c #002129",
",  c #212128",
"<  c #262229",
"1  c #262329",
"2  c #272329",
"3  c #2B2228",
"4  c #28232A",
"5  c #29232B",
"6  c #29242B",
"7  c #2A242C",
"8  c #37242A",
"9  c #382128",
"0  c #3D252D",
"q  c #2D2730",
"w  c #302932",
"e  c #322A34",
"r  c #342B37",
"t  c #352B38",
"y  c #372B38",
"u  c #621F22",
"i  c #43242D",
"p  c #44242D",
"a  c #462832",
"s  c #472832",
"d  c #472933",
"f  c #482933",
"g  c #4A2832",
"h  c #4B2832",
"j  c #4C2832",
"k  c #4C2833",
"l  c #4C2B36",
"z  c #512B35",
"x  c #692229",
"c  c #6A2329",
"v  c #76262D",
"b  c #78272E",
"n  c #642F3E",
"m  c #7F2931",
"M  c #443243",
"N  c #443343",
"B  c #443344",
"V  c #423649",
"C  c #4B3649",
"Z  c #4B374A",
"A  c #4C374A",
"S  c #45384B",
"D  c #4B384C",
"F  c #4C384C",
"G  c #4D384C",
"H  c #4F394D",
"J  c #4F394E",
"K  c #5A374A",
"L  c #503A4F",
"P  c #4A3B50",
"I  c #4C3C52",
"U  c #4D3C52",
"Y  c #4E3C52",
"T  c #533B50",
"R  c #533C52",
"E  c #533C53",
"W  c #553C53",
"Q  c #533D54",
"!  c #553D54",
"~  c #563D54",
"^  c #563E55",
"/  c #573E55",
"(  c #583C52",
")  c #5C3C53",
"_  c #5E3C52",
"`  c #5E3C53",
"'  c #593F56",
"]  c #653446",
"[  c #743447",
"{  c #77384C",
"}  c #77384D",
"|  c #75394F",
" . c #76394F",
".. c #753A4F",
"X. c #79394F",
"o. c #7F394E",
"O. c #7F394F",
"+. c #603C53",
"@. c #613C53",
"#. c #613D53",
"$. c #623C52",
"%. c #623C53",
"&. c #623D53",
"*. c #663C53",
"=. c #673C53",
"-. c #663D54",
";. c #673F56",
":. c #683E55",
">. c #683F56",
",. c #773A50",
"<. c #783A50",
"1. c #7D3C53",
"2. c #7F3D55",
"3. c #5C4159",
"4. c #8D303D",
"5. c #8D303E",
"6. c #B6303E",
"7. c #81394E",
"8. c #82394E",
"9. c #833A4F",
"0. c #803D55",
"q. c #843E55",
"w. c #853E56",
"e. c #843E57",
"r. c #853E57",
"t. c #863E56",
"y. c #873E57",
"u. c #883A51",
"i. c #883C52",
"p. c #8A3C53",
"a. c #883E55",
"s. c #893E55",
"d. c #8A3E55",
"f. c #893E56",
"g. c #8E3D55",
"h. c #8C3E56",
"j. c #8D3E56",
"k. c #8C3F57",
"l. c #8E3E56",
"z. c #8F3E56",
"x. c #803F58",
"c. c #903E56",
"v. c #903E57",
"b. c #913E57",
"n. c #913F57",
"m. c #923E56",
"M. c #933E56",
"N. c #933E57",
"B. c #943E57",
"V. c #993E55",
"C. c #9A3E56",
"Z. c #A33C52",
"A. c #A03D54",
"S. c #A53D54",
"D. c #A73D54",
"F. c #A53F57",
"G. c #AA3F57",
"H. c #AB3F57",
"J. c #AA3F58",
"K. c #B73C52",
"L. c #CB3545",
"P. c #CD3546",
"I. c #D53749",
"U. c #D6384B",
"Y. c #D23A4E",
"T. c #D33A4E",
"R. c #D33B4F",
"E. c #D73A4D",
"W. c #D43A4F",
"Q. c #D73A4E",
"!. c #DA394D",
"~. c #DF394C",
"^. c #C43B50",
"/. c #C53B51",
"(. c #C53C51",
"). c #D33B50",
"_. c #E5384B",
"`. c #E5394B",
"'. c #E6384B",
"]. c #E0394C",
"[. c #E1394C",
"{. c #E2394C",
"}. c #E2394D",
"|. c #E3394D",
" X c #E7394C",
".X c #E9384A",
"XX c #E83B4F",
"oX c #E93B4F",
"OX c #F13C51",
"+X c #8A4058",
"@X c #914059",
"#X c #934059",
"$X c #944059",
"%X c #954059",
"&X c #974059",
"*X c #99425C",
"=X c #AD415A",
"-X c None",
/* pixels */
"-X-X-X-X-X-X-X-X-X-X-X-X-X-X-X-X-X-X-X-X-X-X-X-X-X-X-X-X-X-X-X-X",
"-X-X-X-X-X-X-X-X-X-X-X-X-X-X-X-X-X-X-X-X-X-X-X-X-X-X-X-X-X-X-X-X",
"-X-X-X-X-X-X-X-X= ; ; : : : : : : : : : : ; ; = -X-X-X-X-X-X-X-X",
"-X-X-X-X-X-X-X-Xx m b v v v v v v v v v v b m c -X-X-X-X-X-X-X-X",
"-X-X-X-X-X-X  u 6.I.P.L.L.L.L.L.L.L.L.L.L.P.I.6.u   -X-X-X-X-X-X",
"-X-X-X-X-X-X> 5.U.OXoXXXXXXXXXXXXXXXXXXXXXoXOXU.4.> -X-X-X-X-X-X",
"-X-X-X-X# 0 ] Z.T. X|.}.}.}.}.}.}.}.}.}.}.|. XT.Z.] 0 # -X-X-X-X",
"-X-X-X-X% l 1.=X)._.[.].].].].].].].].].].[._.).=X1.l # -X-X-X-X",
"-X-X-X-X% f <.J.R.`.[.].].].].].].].].].].[.`.R.G.,.d % -X-X-X-X",
"-X-X-X-X% a  .G.W.'.[.].].].].].].].].].].[.'.W.G. .a % -X-X-X-X",
"-X-X-X-X% a ..H.Q..X{.].].].].].].].].].~.{..XQ.H.| a % -X-X-X-X",
"-X-X-X-X% s X.F.(.!.~.{.[.[.[.[.[.[.[.[.{.~.!./.F.X.s % -X-X-X-X",
"-X-X-X-X% g O.&XC.K.!..X'.`.`.`.`.`.`.'..X!.K.C.&Xo.g % -X-X-X-X",
"-X-X-X-X% j 8.@Xx.V.^.E.T.Y.Y.Y.Y.Y.Y.T.E.^.V.x.@X8.h % -X-X-X-X",
"-X-X-X-X% h 8.#Xk.m.A.D.S.S.S.S.S.S.S.S.D.A.m.k.#X8.h % -X-X-X-X",
"-X-X-X-X% h 7.$Xb.j.y.e.r.r.r.r.r.r.r.r.e.y.j.b.$X7.h % -X-X-X-X",
"-X-X-X-X% h 7.$Xv.z.j.j.j.j.j.j.j.j.j.j.j.j.z.v.$X7.h % -X-X-X-X",
"-X-X-X-X% h 7.$Xv.z.z.z.z.z.z.z.z.z.z.z.z.z.z.v.$X7.h % -X-X-X-X",
"-X-X-X-X% h 7.$Xv.z.z.z.z.z.z.z.z.z.z.z.z.z.z.v.$X7.h % -X-X-X-X",
"-X-X-X-X% k 9.%Xv.z.z.z.z.z.z.z.z.z.z.z.z.z.z.v.%X9.k % -X-X-X-X",
"-X-X-X-X% z i.*Xn.z.z.z.z.z.z.z.z.z.z.z.z.z.l.n.*Xi.z # -X-X-X-X",
"-X-X-X-X+ p [ p.g.b.c.c.c.c.c.c.c.c.c.c.c.c.b.g.p.[ i + -X-X-X-X",
"-X-X-X-X-X-X9 n u.&XB.M.M.M.M.M.M.M.M.M.M.N.&Xu.n 9 -X-X-X-X-X-X",
"-X-X-X-X-X-X. 8 } +Xt.q.q.q.q.q.q.q.q.q.q.w.+X{ 8 . -X-X-X-X-X-X",
"-X-X-X-X$ @ X 3 K ;.#._ ` _ ` _ ` _ ` _ ` #.;.K 3 X + $ -X-X-X-X",
"-X-X-X-X5 w 4 r S Q ) @.+.+.+.+.+.+.+.+.@.) Q S r 4 w 5 -X-X-X-X",
"-X-X& 5 N J A D P &.2.h.s.a.a.a.a.a.a.s.h.2.&.P D A J M 5 & -X-X",
"-X-X* e L 3.' ^ Y $.0.h.d.f.f.f.f.f.f.d.h.0.$.Y ^ ' 3.L e * -X-X",
"-X-X* e L 3.' / E ( %.=.*.-.:.>.>.:.-.*.=.%.( E / ' 3.L e * -X-X",
"-X-X& 6 B H Z G T E Y I U P S V V S P U I Y E T G Z H B 6 & -X-X",
"-X-X-X-X7 q 2 y G ~ R R ! F t , , t F ! R R ~ G y 1 q 7 -X-X-X-X",
"-X-X-X-X: - O < C / W W / C < o o < C / W W / C < O - : -X-X-X-X"
};
