/* XPM */
static char *result[] = {
/* columns rows colors chars-per-pixel */
"32 32 158 2 ",
"   c black",
".  c #000B00",
"X  c #001305",
"o  c #00150B",
"O  c #001814",
"+  c #031A19",
"@  c #181C1B",
"#  c #261E26",
"$  c #311A28",
"%  c #35123A",
"&  c #012125",
"*  c #002129",
"=  c #1E2026",
"-  c #003839",
";  c #163E34",
":  c #232125",
">  c #2B252E",
",  c #282224",
"<  c #3D242C",
"1  c #352229",
"2  c #382932",
"3  c #332730",
"4  c #273E3B",
"5  c #3B303E",
"6  c #262935",
"7  c #560000",
"8  c #5A0000",
"9  c #600000",
"0  c #6F0916",
"q  c #4B1D2B",
"w  c #441C2A",
"e  c #4F0033",
"r  c #621F22",
"t  c #740038",
"y  c #7D173F",
"u  c #44242B",
"i  c #47232B",
"p  c #472631",
"a  c #4B2731",
"s  c #472933",
"d  c #4C2933",
"f  c #552B38",
"g  c #6A2329",
"h  c #76262D",
"j  c #78272E",
"k  c #612D3B",
"l  c #7F2931",
"z  c #762B31",
"x  c #3D3242",
"c  c #572844",
"v  c #5F2E46",
"b  c #522743",
"n  c #43344A",
"m  c #483649",
"M  c #573649",
"N  c #4C3C52",
"B  c #553D53",
"V  c #5B3C52",
"C  c #653446",
"Z  c #76384D",
"A  c #7D394E",
"S  c #763449",
"D  c #623D53",
"F  c #693E55",
"G  c #7B3E55",
"H  c #773C51",
"J  c #484151",
"K  c #414653",
"L  c #75445C",
"P  c #6A4159",
"I  c #596B6E",
"U  c #656166",
"Y  c #64646D",
"T  c #616D72",
"R  c #7D7179",
"E  c #810039",
"W  c #8D303E",
"Q  c #B6303E",
"!  c #DE0007",
"~  c #DE000F",
"^  c #E1001A",
"/  c #E8002C",
"(  c #CE283B",
")  c #D22437",
"_  c #82384E",
"`  c #893A4F",
"'  c #83374C",
"]  c #853C52",
"[  c #8A3D54",
"{  c #973A50",
"}  c #A53D54",
"|  c #AA3D55",
" . c #AE3F5A",
".. c #D61D41",
"X. c #C02D41",
"o. c #DF2E44",
"O. c #CC3545",
"+. c #D5374B",
"@. c #D5394D",
"#. c #CE3C52",
"$. c #DB3C51",
"%. c #E02E44",
"&. c #E3394D",
"*. c #E83B4F",
"=. c #E53045",
"-. c #E03C50",
";. c #F13C51",
":. c #844059",
">. c #894059",
",. c #95425B",
"<. c #9C415A",
"1. c #A64C5F",
"2. c #974560",
"3. c #A34661",
"4. c #986B75",
"5. c #987078",
"6. c #C9626A",
"7. c #DE7278",
"8. c #6E7D80",
"9. c #707D81",
"0. c #E47E88",
"q. c #E27B84",
"w. c #898E8F",
"e. c #89908F",
"r. c #8A9B98",
"t. c #AB9C99",
"y. c #8CA69F",
"u. c #9DACA7",
"i. c #9AB2AB",
"p. c #A0AEA9",
"a. c #A5B8B3",
"s. c #C8BDBB",
"d. c #B1C4BF",
"f. c #C6BFC6",
"g. c #B5C6C2",
"h. c #B7C9C5",
"j. c #B7CFC9",
"k. c #BDCDC9",
"l. c #B9CAC6",
"z. c #BDD1CC",
"x. c #BCD9D5",
"c. c #C0D0CD",
"v. c #C2D4D0",
"b. c #D8D6DA",
"n. c #DADDDF",
"m. c #E4CDD2",
"M. c #EED3DB",
"N. c #F2D6DE",
"B. c #E7DFE7",
"V. c #E5E1E7",
"C. c #E6E4E8",
"Z. c #E9E6EB",
"A. c #E7EBF0",
"S. c #F7EFF6",
"D. c #F8EFF7",
"F. c #F5F3F9",
"G. c #FBF4FC",
"H. c None",
/* pixels */
"H.H.H.H.H.H.H.H.H.H.H.H.H.H.H.H.H.H.H.H.H.H.H.H.H.H.H.H.H.H.H.H.",
"H.H.H.H.H.H.H.H.H.H.H.H.H.H.H.H.H.H.H.H.H.H.H.H.H.H.H.H.H.H.H.H.",
"H.H.H.H.H.H.H.H.o o o o o O o o O o O o o o o o H.H.H.H.H.H.H.H.",
"H.H.H.H.H.H.H.H.g W j j h h h h h h h h h h W g H.H.H.H.H.H.H.H.",
"H.H.H.H.H.H.. r Q +.O.O.O.O.O.O.O.O.O.O.O.O.+.Q g . H.H.H.H.H.H.",
"H.H.H.H.H.H.* W @.;.*.*.*.*.*.*.*.*.*.*.*.-.;.@.W * H.H.H.H.H.H.",
"H.H.H.H.X < C } @.&.&.&.$.&.&.&.&.&.&.&.&.&.*.@.} C < o H.H.H.H.",
"H.H.H.H.o d G  .+.=.%.%.o.o.o.o.o.o.o.o.%.%.=.+.1.Z d X H.H.H.H.",
"H.H.H.H.o d H | ../ ^ ! ~ ~ ~ ~ ~ ~ ~ ! ! ^ / ..| Z d X H.H.H.H.",
"H.H.H.H.X a S 3.6.7.q.0.0.0.0.0.0.0.0.t.0.0.7.6.1.S s X H.H.H.H.",
"H.H.H.H.o i E 4.t.s.m.N.M.M.M.M.N.N.M.M.N.m.s.t.4.E a o H.H.H.H.",
"H.H.H.H.X a E 5.i.v.A.G.F.F.F.F.D.D.F.F.G.A.x.i.4.E q X H.H.H.H.",
"H.H.H.H.o q t 5.i.v.Z.G.D.D.D.D.D.D.D.D.G.Z.c.u.4.E q o H.H.H.H.",
"H.H.H.H.X w t 5.p.z.n.Z.V.V.C.Z.Z.V.V.V.Z.n.z.p.5.t w o H.H.H.H.",
"H.H.H.H.o $ e R a.j.l.h.g.l.c.c.c.c.l.d.g.h.j.a.R e $ o H.H.H.H.",
"H.H.H.H.o # % Y r.a.g.k.k.d.i.y.y.p.d.c.k.g.a.r.Y % : o H.H.H.H.",
"H.H.H.H.o > n J 4 e.b.F.F.b.w.; ; e.b.G.F.b.w.4 J n > o H.H.H.H.",
"H.H.H.H.o 2 V c   U f.B.V.f.U     U c.V.B.f.U   c D 2 o H.H.H.H.",
"H.H.H.H.X s A ] c K T 8.9.I -     - I R 8.T K b ] G a X H.H.H.H.",
"H.H.H.H.X d ` ,.L v 8 8 8 9 0 z z 0 8 7 8 8 v L ,.' a X H.H.H.H.",
"H.H.@ O . i ` ,.:.{ X.) ( ( O.O.O.O.( ) ) | { ] ,.] d o H.H.H.H.",
"H.H.+ , $ f Z ` [ } #.-.$.$.$.$.$.&.$.$.&.+.1.[ ] S u o H.H.H.H.",
"H.H.o d A ' f f ] <.| | | } | | | | | | | } { ] k 1 , + H.H.H.H.",
"H.H.X d ' ' , # Z [ L G G G G G G G G L G ] >.Z 1 . O @ H.H.H.H.",
"H.H.H.H.d d @ > M P D D D D V D V P D D V B P M 3 X H.H.H.H.H.H.",
"H.H.H.H.X X o , x N N N N N N N N N n m B B P M 3 o H.H.H.H.H.H.",
"H.H.H.H.H.H.H.H.= 5 V J N N N B J B 6 s Z >.>.Z s o H.H.H.H.H.H.",
"H.H.H.H.H.H.H.H.. # n B D F F D M n + w ' 1.<.` d X H.H.H.H.H.H.",
"H.H.H.H.H.H.H.H.H.H.& f :.2.2.] f & O d [ 3.3.[ f o H.H.H.H.H.H.",
"H.H.H.H.H.H.H.H.H.H.. u _ <.<.' u . X a _ ,.,.' u X H.H.H.H.H.H.",
"H.H.H.H.H.H.H.H.H.H.H.H.H.H.H.H.H.H.H.H.H.H.H.H.H.H.H.H.H.H.H.H.",
"H.H.H.H.H.H.H.H.H.H.H.H.H.H.H.H.H.H.H.H.H.H.H.H.H.H.H.H.H.H.H.H."
};
