/* XPM */
static char *result[] = {
/* columns rows colors chars-per-pixel */
"32 32 212 2 ",
"   c #000002",
".  c #00000B",
"X  c #000114",
"o  c #000218",
"O  c #000A19",
"+  c #01151A",
"@  c #0C1A1A",
"#  c #011819",
"$  c #1D1D1C",
"%  c #2C0000",
"&  c #201D1C",
"*  c #381C1C",
"=  c #24211E",
"-  c #2D211E",
";  c #32211D",
":  c #3A241E",
">  c #3D291F",
",  c #3E2E21",
"<  c #362B20",
"1  c #263525",
"2  c #2C2620",
"3  c #4F0318",
"4  c #611F1B",
"5  c #4D291F",
"6  c #40251E",
"7  c #512B1F",
"8  c #5E2B1F",
"9  c #732F14",
"0  c #402D21",
"q  c #4C2A20",
"w  c #532D21",
"e  c #423122",
"r  c #4C3927",
"t  c #593E25",
"y  c #652F20",
"u  c #653022",
"i  c #783925",
"p  c #5D4229",
"a  c #5B4027",
"s  c #4F432E",
"d  c #65482A",
"f  c #754F2E",
"g  c #745933",
"h  c #7D5833",
"j  c #2A4E5F",
"k  c #535354",
"l  c #595A5D",
"z  c #574C48",
"x  c #4D5A64",
"c  c #833A24",
"v  c #8B3E26",
"b  c #8B382A",
"n  c #983822",
"m  c #D23D18",
"M  c #C71929",
"N  c #C8242C",
"B  c #C9292D",
"V  c #CB362F",
"C  c #CC3A31",
"Z  c #8C4F00",
"A  c #9A5C00",
"S  c #AC6C11",
"D  c #8F4126",
"F  c #8D4429",
"G  c #834129",
"H  c #954127",
"J  c #944529",
"K  c #964A2B",
"L  c #99492B",
"P  c #9F512F",
"I  c #955D35",
"U  c #A84929",
"Y  c #A6512E",
"T  c #BB532E",
"R  c #B0512E",
"E  c #B74931",
"W  c #A75832",
"Q  c #BD5931",
"!  c #B85630",
"~  c #B24929",
"^  c #886137",
"/  c #9C6C3B",
"(  c #95683A",
")  c #AC6A3A",
"_  c #A5713E",
"`  c #AC7134",
"'  c #B97C38",
"]  c #AE7129",
"[  c #DB4600",
"{  c #DB4F13",
"}  c #E55F00",
"|  c #C27800",
" . c #E56810",
".. c #D34726",
"X. c #C4552F",
"o. c #CC4832",
"O. c #D14B34",
"+. c #D44831",
"@. c #C35E33",
"#. c #CB5B32",
"$. c #C45730",
"%. c #D55434",
"&. c #DC5C35",
"*. c #D65939",
"=. c #D75B37",
"-. c #E15835",
";. c #C56436",
":. c #D56336",
">. c #DB6436",
",. c #DC6939",
"<. c #DA673A",
"1. c #DD713C",
"2. c #E37228",
"3. c #E16536",
"4. c #E46837",
"5. c #E56D3A",
"6. c #E96D3A",
"7. c #E6633A",
"8. c #E6723C",
"9. c #EC723C",
"0. c #F2733D",
"q. c #AD7A43",
"w. c #B27B43",
"e. c #BB7B44",
"r. c #A07555",
"t. c #8E7D77",
"y. c #DC6A45",
"u. c #DF7542",
"i. c #DF7259",
"p. c #C77942",
"a. c #E47D45",
"s. c #EC7C42",
"d. c #E27741",
"f. c #F37B41",
"g. c #F1890E",
"h. c #D58A33",
"j. c #F78D38",
"k. c #FC9F33",
"l. c #F1992B",
"z. c #F6A13D",
"x. c #BC8246",
"c. c #C68A4B",
"v. c #D8884A",
"b. c #D9914A",
"n. c #DC9852",
"m. c #EC8246",
"M. c #EF864A",
"N. c #ED8B4C",
"B. c #E68448",
"V. c #F48245",
"C. c #F48B4A",
"Z. c #FA8B4A",
"A. c #F38148",
"S. c #EC924F",
"D. c #F3924C",
"F. c #FA924E",
"G. c #F89244",
"H. c #EA9953",
"J. c #F49953",
"K. c #FC9C53",
"L. c #F39653",
"P. c #FDA948",
"I. c #FFB24F",
"U. c #EDA156",
"Y. c #EFA65B",
"T. c #F4A355",
"R. c #FCA356",
"E. c #FDA659",
"W. c #F2A85B",
"Q. c #FEAC5C",
"!. c #F6A058",
"~. c #FFB15D",
"^. c #FFB85B",
"/. c #FFB452",
"(. c #D1996F",
"). c #E68562",
"_. c #F89C64",
"`. c #FFAD61",
"'. c #FFB361",
"]. c #FFB76A",
"[. c #EFA178",
"{. c #FCB87A",
"}. c #98959A",
"|. c #8F8584",
" X c #9C9DA4",
".X c #B1AEB5",
"XX c #A3A1A7",
"oX c #C49B82",
"OX c #E59A8E",
"+X c #FDB888",
"@X c #EEB091",
"#X c #CCB2AA",
"$X c #ECBCB5",
"%X c #FFC188",
"&X c #FECEAE",
"*X c #FFCCA7",
"=X c #FFC8B0",
"-X c #C5BFC4",
";X c #CECAD2",
":X c #EDCBC5",
">X c #FFD6C4",
",X c #FDDDD1",
"<X c #F2D8D4",
"1X c #E5D5D5",
"2X c #E3DCE2",
"3X c #F4E5E6",
"4X c #FDECEC",
"5X c #F3EDF4",
"6X c #FFFAFF",
"7X c #FAF3FA",
"8X c #E8E6EF",
"9X c None",
/* pixels */
"9X9X9X9X9X              X X . . 9X9X9X9X9X9X9X9X9X9X9X9X9X9X9X9X",
"9X9X9X9X9X              X X . X 9X9X9X9X9X9X9X9X9X9X9X9X9X9X9X9X",
"9X9X9X9X9Xk k l x j k s t t t t 9X9X9X9X9X9X9X9X9X9X9X9X9X9X9X9X",
"9X9X9X9X9X|.}.XX X}.(.r.] ` _ ( d 9X9X9X9X9X9X9X9X9X9X9X9X9X9X9X",
"9X9X9X  j  X-X;X;X;X#X(.h.b.b.x.h .   + O .   9X9X9X9X    . # & ",
"9X9X9X  x .X2X5X5X2X:X[.z.P.W.b.^ X . + # X X . 9X9X9X. X X @ & ",
"9X9X  % t.;X5X6X6X4X&X%XP./.'.U._ * X + = r p a 9X9X9Xt p e = + ",
"9X9X9 Z (.1X7X6X7X,X&X{.I.^.'.!.p.v 3 X 1 ^ q./ 9X9Xh / q.h 2 o ",
". , A | @X<X5X7X,X*X%X].~.^.'.T.v.T 9 X 1 w.n.c.g + ( c.c./ : X ",
". e S l.+X,X5X3X&X].~.].~.'.'.T.A.&.n X s c.W.n.h # q.H.Y.w., . ",
". e ] z.+X>X8X<X+Xk.k.P.E.`.Q.K.V.6.~ 4 g b.Q.H.I w e.Q.Q.x.e   ",
". e ' P.+X=X:X$X[.g.g.S.L.J.L.F.f.6.$.n I v.R.S.W b v.Q.~.x.e . ",
". e ' T.].+X@XOX).2.2.u.a.B.m.s.s.6.:.Q ;.a.C.a.E E v.`.Q.x.,   ",
". e _ U.`.`.).i.y.*.%.*.*.,.5.8.6.5.,.<.<.8.8.,.o.o.B.Q.W.x., . ",
". e x.Y.W.j.} [ ..C V C O.&.u.8.5.5.6.9.6.6.4.&.+.&.m.E.Y.w., . ",
"  e x.Y.E.j.} [ m V B M +.,.s.m.8.5.6.9.0.6.4.7.-.7.A.K.S.` > X ",
". , x.W.Q.j.2.{ +.C N M O.a.L.D.a.5.6.9.9.9.6.6.7.6.V.Z.B.) : . ",
". , w.W.Q.F.6.&.%.o.V B *.N.E.R.m.5.4.6.9.9.9.6.6.6.0.0.1.Y : X ",
". , w.U.E.F.8.&.%.O.o.O.u.L.~.E.M.4.>.,.,.<.<.,.,.<.4.,.#.H : o ",
". e ) S.K.C.5.>.&.&.y.u.N.!.'.E.C.4.:.#.Q Q Q @.@.@.@.X.~ i ; + ",
"X 0 ) m.Z.f.6.>.&.>.a.N.J.'.'.E.Z.6.#.Y F J K K K L L L D u = # ",
"o > W ,.f.9.6.5.3.5.N.R.~.~.'.R.C.4.T i - > w w w w w w q : $ # ",
"X : J #.5.5.5.5.4.8.C.E.~.~.E.K.V.:.U 5 X X O o O O O X O + @ $ ",
"X : c U #.>.6.6.6.8.C.K.E.E.K.N.1.! D ; . . X X X X X X o O @ $ ",
"9X9Xy i R :.6.f.9.9.V.C.F.F.F.B.;.F y 9X9X9X9X9X9X9X9X9X9X9X9X9X",
"9X9X# $ c @.6.0.9.9.9.9.s.f.0.:.P 6 O 9X9X9X9X9X9X9X9X9X9X9X9X9X",
"9X9X9XX q Y :.5.,.,.>.:.>.3.>.R i X 9X9X9X9X9X9X9X9X9X9X9X9X9X9X",
"9X9X9X. * K Q @.Q Q T T T X.T U 8 X 9X9X9X9X9X9X9X9X9X9X9X9X9X9X",
"9X9X9X9X9Xi F L J D D F D J n c 7 9X9X9X9X9X9X9X9X9X9X9X9X9X9X9X",
"9X9X9X9X9Xq w w w w q w w w w q 9X9X9X9X9X9X9X9X9X9X9X9X9X9X9X9X",
"9X9X9X9X9XO O O O O O O O O O O 9X9X9X9X9X9X9X9X9X9X9X9X9X9X9X9X",
"9X9X9X9X9Xo o o o X o o o o o X 9X9X9X9X9X9X9X9X9X9X9X9X9X9X9X9X"
};
