/* XPM */
static char *result[] = {
/* columns rows colors chars-per-pixel */
"32 32 207 2 ",
"   c #000000",
".  c #00000C",
"X  c #120000",
"o  c #000011",
"O  c #000B14",
"+  c #001319",
"@  c #00191A",
"#  c #1F1C1C",
"$  c #391000",
"%  c #3F2407",
"&  c #002321",
"*  c #1C2824",
"=  c #00323D",
"-  c #153636",
";  c #382822",
":  c #2D2722",
">  c #430000",
",  c #4F0000",
"<  c #550000",
"1  c #451C1A",
"2  c #5B1D16",
"3  c #731A00",
"4  c #442407",
"5  c #752F00",
"6  c #6C3A14",
"7  c #432B25",
"8  c #472E29",
"9  c #4F3029",
"0  c #4C3322",
"q  c #52332B",
"w  c #5A3828",
"e  c #642A22",
"r  c #6D2D24",
"t  c #672720",
"y  c #722E25",
"u  c #663A29",
"i  c #773127",
"p  c #78382C",
"a  c #723F32",
"s  c #7D451B",
"d  c #694229",
"f  c #76492C",
"g  c #7C4D2D",
"h  c #70462B",
"j  c #6C4437",
"k  c #684D3F",
"l  c #744435",
"z  c #78463B",
"x  c #003E4A",
"c  c #00414B",
"v  c #004951",
"b  c #1C585E",
"n  c #164346",
"m  c #2B4344",
"M  c #305354",
"N  c #285861",
"B  c #186466",
"V  c #226C6F",
"C  c #38777A",
"Z  c #267273",
"A  c #715646",
"S  c #7F4842",
"D  c #495F61",
"F  c #4F7171",
"G  c #767B7C",
"H  c #AB3115",
"J  c #8C3226",
"K  c #833E31",
"L  c #AA3E2C",
"P  c #C50F00",
"I  c #C80000",
"U  c #C41300",
"Y  c #D21900",
"T  c #D42D00",
"R  c #C82900",
"E  c #C43B26",
"W  c #9D5818",
"Q  c #83512F",
"!  c #894D3B",
"~  c #824D3C",
"^  c #944F3D",
"/  c #9D4C3D",
"(  c #984639",
")  c #845130",
"_  c #88503E",
"`  c #8D5733",
"'  c #955B34",
"]  c #9D523F",
"[  c #97553F",
"{  c #BE442F",
"}  c #A44A33",
"|  c #AB4F3C",
" . c #A34C38",
".. c #BD4533",
"X. c #BC4E39",
"o. c #B44834",
"O. c #A2523E",
"+. c #A7553A",
"@. c #B2503B",
"#. c #BB563F",
"$. c #A9623D",
"%. c #DE5600",
"&. c #D66F00",
"*. c #DC6E06",
"=. c #D17014",
"-. c #F27F1B",
";. c #EB7900",
":. c #C1442F",
">. c #C44532",
",. c #C64C36",
"<. c #CB4B35",
"1. c #C14E39",
"2. c #C94E38",
"3. c #D34B34",
"4. c #D94C34",
"5. c #D04F38",
"6. c #CC5435",
"7. c #D85431",
"8. c #E15137",
"9. c #E15D30",
"0. c #DF613A",
"q. c #D6623D",
"w. c #C1743F",
"e. c #D47D3D",
"r. c #E57F20",
"t. c #E56E3C",
"y. c #8E5441",
"u. c #855342",
"i. c #955340",
"p. c #9B5542",
"a. c #9F5945",
"s. c #AD5641",
"d. c #A55A43",
"f. c #B15C40",
"g. c #BC7348",
"h. c #8C7B72",
"j. c #977776",
"k. c #CF5A4C",
"l. c #CB7B44",
"z. c #C17743",
"x. c #C17251",
"c. c #D67C76",
"v. c #DB813C",
"b. c #F68B26",
"n. c #EA893D",
"m. c #8C817C",
"M. c #DC8345",
"N. c #DD854A",
"B. c #D68347",
"V. c #DE925F",
"C. c #D98C5D",
"Z. c #EF8E47",
"A. c #E38A4B",
"S. c #EE8E4C",
"D. c #E08748",
"F. c #F28B49",
"G. c #EF904C",
"H. c #FF9B4F",
"J. c #F3924A",
"K. c #F38D50",
"L. c #EA9150",
"P. c #F29452",
"I. c #F89651",
"U. c #F79857",
"Y. c #E38A50",
"T. c #D5926D",
"R. c #F69D64",
"E. c #F5A170",
"W. c #4F7F81",
"Q. c #507F81",
"!. c #6E7D80",
"~. c #4B8283",
"^. c #558486",
"/. c #738B8E",
"(. c #7A9EA1",
"). c #89A2A7",
"_. c #8BAEB1",
"`. c #8DB2B5",
"'. c #DA8B86",
"]. c #D48886",
"[. c #DA9087",
"{. c #D8A389",
"}. c #E7A78B",
"|. c #EAAA86",
" X c #F5B290",
".X c #F5AF89",
"XX c #F5C7B3",
"oX c #BDCFD3",
"OX c #B8CCD1",
"+X c #D6D0CE",
"@X c #CAD7DA",
"#X c #D1CFD1",
"$X c #E9D1C7",
"%X c #ECE0DC",
"&X c #F0E2DC",
"*X c #D2E6EB",
"=X c #D8E4E8",
"-X c #D8EDF3",
";X c #DEF9FF",
":X c #E3E4E7",
">X c #E9E4E7",
",X c #E6E6E8",
"<X c #E9EBEA",
"1X c #E0EFF3",
"2X c #EAFEFF",
"3X c #F5FAFA",
"4X c None",
/* pixels */
"4X4X4X4X4X4X4X4X4X4X4X4X4X4X4X4X4X4X4X4X4X4X4X4X4X4X4X4X4X4X4X4X",
"4X4X4X4X4X4X4X4X4X4X4X4X4X4X4X4X4X4X4X4X4X4X4X4X4X4X4X4X4X4X4X4X",
"4X4X4X4X4X4X4X4X4X4X4X4XO O O O O O 4X4XO + O + O + O + @ # 4X4X",
"4X4X4X4X4X4X4X4X4X4X4X4X7 q 9 9 q 7 4X4Xe i i r r r y e ; @ 4X4X",
"4X4X4X4X4X4XO O + O . * l u.~ ~ ! j & 1 } >.>.{ ..>.>.L e + 4X4X",
"4X4X4X4X4X4X; w r r t p / s.s.+.s./ p J >.8.4.3.4.4.8.>.y O 4X4X",
"4X4X4X4X  : j / o.>.{ >.,.2.,.,.2.,...>.3.4.3.3.4.3.8.<.i + 4X4X",
"4X4X4X4X; a / f.5.4.4.3.3.4.4.3.4.4.3.3.3.3.3.3.4.<.<.L e O 4X4X",
"4X4XO 7 l O.X.3.3.3.3.<.3.3.3.3.3.3.3.3.3.3.3.4.4.>.J 1 4X4X4X4X",
"4X4XO q u.s.1.3.3.3.3.3.<.3.3.3.3.3.3.<.<.,.,.>.<.o.u & 4X4X4X4X",
"4X4XO 9 ! p.O.@.<.4.3.<.<.3.3.3.3.3.4.<.| p.p.O.O.] ^ l 8 O 4X4X",
"4X4XO 9 ! p.y.] X.<.3.3.3.3.3.3.<.<.<...| p.O.p.] ] a.! q O 4X4X",
"4X4XO 9 ! ] i.i.] @.<.4.4.4.4.<.| s./ | ..>.>.>.E L p.z 8 O 4X4X",
"4X4XO 9 ! p.i.i.y.] X.,.,.,.,.X.p.u.u.O.6.0.0.0.0.q.g.p.w o 4X4X",
"4X4XO 9 ! p.[ i.i.i.O.O.] ] O.] i.y.S +.*.-.F.K.K.K.S.l.f . 4X4X",
"4X4XO 9 ! p.[ i.i.i.i.i.] O.] ] i.p.d.g.}..XL.l.N.Y.I.A.) . 4X4X",
"4X4XO 9 ! p.p.i.i.i.i.O.X.<.,.X./ +.=.}.%X@Xm.> 4 ' A.A.Q . 4X4X",
"4X4XO 9 ! p.[ i.i.i.y.O.<.4.4.<.( $.b..X&X@Xm.> 4 ' A.A.Q . 4X4X",
"4X4XO 9 ! p.i.i.[ i.[ +.<.4.3.>.( a.M.R.|.|.C.e.N.A.H.A.Q . 4X4X",
"4X4XO q ! p.i.[ i.i._ O.X.<.3.<.+.g.A.Z.b.b.J.P.A.D.A.g.h o 4X4X",
"4X4XO q ^ a.i.y.y.y.y.i.[ @.>.0.N.L.P.G.G.J.I.B.' 0 d w ; + 4X4X",
"4X4XO 7 l ^ O.| } } } } ( } E 7.t.F.Z.G.G.G.H.N.' 0 d w ; + 4X4X",
"4X4X4X4X* K X.3.R I P P U U I Y T %.;.b.G.P.U.P.A.N.A.l.g . 4X4X",
"4X4X4X4X. 2 H k.c.'.'.'.'.'.'.].].[.}.|.U.n.B.B.N.A.G.l.f . 4X4X",
"4X4X4X4X4X4X< j.#X>X>X>X:X:X:X:X:X,X:X$XE.*.W h g ) ` f 4X4X4X4X",
"4X4X4X4X4X4X  /.*X2X*X@X:X>X<X<X=X*X;X<XXXT.k     . . . 4X4X4X4X",
"4X4X4X4X4X4X  /.-X1X).h.{. X X{.h.).=X3X3X+XG   4X4X4X4X4X4X4X4X",
"4X4X4X4X4X4X  G @XoXN < &.b.b.&.< b OX-X-XoX/.  4X4X4X4X4X4X4X4X",
"4X4X4X4X4X4X  D ).(.c 3 v.H.H.v.5 x /.`.`.(.D   4X4X4X4X4X4X4X4X",
"4X4X4X4X4X4XX - B B v A z.D.A.w.6 = V C Z b - X 4X4X4X4X4X4X4X4X",
"4X4X4X4X4X4X4X4X- N F F A s g d $ n W.~.N - 4X4X4X4X4X4X4X4X4X4X",
"4X4X4X4X4X4X4X4X  m ^.~.c     .   m W.W.m   4X4X4X4X4X4X4X4X4X4X"
};
