/* XPM */
static char *result[] = {
/* columns rows colors chars-per-pixel */
"32 32 174 2 ",
"   c #000001",
".  c #0D0000",
"X  c #00000C",
"o  c #160900",
"O  c #000112",
"+  c #000D15",
"@  c #0E0012",
"#  c #001117",
"$  c #001319",
"%  c #021B1C",
"&  c #0B1A1B",
"*  c #1C1D1D",
"=  c #19161D",
"-  c #380000",
";  c #291401",
":  c #231F1D",
">  c #1C211F",
",  c #3A221F",
"<  c #002221",
"1  c #182723",
"2  c #0F3637",
"3  c #2B2720",
"4  c #3F2924",
"5  c #3E3322",
"6  c #253B3C",
"7  c #550000",
"8  c #4A1E1B",
"9  c #741B04",
"0  c #5D221D",
"q  c #53251F",
"w  c #442C26",
"e  c #4B2F27",
"r  c #5B2822",
"t  c #4F3229",
"y  c #52322A",
"u  c #593628",
"i  c #672A22",
"p  c #6A2B23",
"a  c #722E25",
"s  c #68382E",
"d  c #73382F",
"f  c #43453F",
"g  c #6F4529",
"h  c #71462A",
"j  c #794B2E",
"k  c #6F4437",
"l  c #764335",
"z  c #764835",
"x  c #003F42",
"c  c #294647",
"v  c #34595A",
"b  c #3A5E5F",
"n  c #03676C",
"m  c #266D6F",
"M  c #2F6F70",
"N  c #337A7C",
"B  c #307678",
"V  c #405759",
"C  c #446E6F",
"Z  c #4C7B7D",
"A  c #597275",
"S  c #6F7065",
"D  c #B90000",
"F  c #893D2B",
"G  c #913729",
"H  c #903326",
"J  c #833D30",
"K  c #AC3D2C",
"L  c #CC3E21",
"P  c #85502D",
"I  c #82453D",
"U  c #834D3D",
"Y  c #8B4C3D",
"T  c #994E3C",
"R  c #855331",
"E  c #895532",
"W  c #92503F",
"Q  c #9D523F",
"!  c #9F5C3E",
"~  c #B3412E",
"^  c #BB432F",
"/  c #A24F3C",
"(  c #BD4530",
")  c #BC4E39",
"_  c #B94A36",
"`  c #A4513E",
"'  c #A75A38",
"]  c #AD5F3A",
"[  c #B3503B",
"{  c #986237",
"}  c #AF613A",
"|  c #AA683B",
" . c #BB6E33",
".. c #BF7034",
"X. c #DA4200",
"o. c #DF7600",
"O. c #E07804",
"+. c #E17909",
"@. c #C44631",
"#. c #C64D37",
"$. c #CB4B34",
"%. c #CB4F38",
"&. c #C74E38",
"*. c #D34B34",
"=. c #D94D34",
"-. c #D44D31",
";. c #E05037",
":. c #D47339",
">. c #914E40",
",. c #8D5441",
"<. c #955340",
"1. c #9A5541",
"2. c #9F5945",
"3. c #AD5641",
"4. c #A25B42",
"5. c #B26646",
"6. c #BE7440",
"7. c #8E7E77",
"8. c #C26F40",
"9. c #C27641",
"0. c #C57448",
"q. c #CF7B49",
"w. c #D27F47",
"e. c #C37F51",
"r. c #F88000",
"t. c #E78128",
"y. c #FF943C",
"u. c #8F8079",
"i. c #DA824C",
"p. c #E48B4C",
"a. c #EB8E4E",
"s. c #E38745",
"d. c #FB964A",
"f. c #E68F55",
"g. c #E4925F",
"h. c #F59551",
"j. c #FE9B53",
"k. c #F3955F",
"l. c #EA9E72",
"z. c #E49372",
"x. c #4C7F81",
"c. c #4E8486",
"v. c #528486",
"b. c #558A8C",
"n. c #588D8F",
"m. c #508688",
"M. c #558E90",
"N. c #789698",
"B. c #77ABB1",
"V. c #928182",
"C. c #A8A59D",
"Z. c #85A6A8",
"A. c #87AAAD",
"S. c #C28485",
"D. c #F2AF8B",
"F. c #F2A881",
"G. c #F3B18E",
"H. c #F1AF8B",
"J. c #EEC4B2",
"K. c #B8C9CD",
"L. c #D4D1CE",
"P. c #D2D2D1",
"I. c #E6CEC9",
"U. c #E7E1DE",
"Y. c #CFE0E3",
"T. c #CCE6EC",
"R. c #D3E1E5",
"E. c #D9E4E8",
"W. c #E9E8E7",
"Q. c #E4F9FE",
"!. c #EAF9FD",
"~. c #E8F5F8",
"^. c #F1FFFF",
"/. c None",
/* pixels */
"/./././././././.+ $ + + + $ & * /./.$ $ # # $ $ /./././././././.",
"/./././././././.w w t w e w > $ /./.i a p p a p /./././././././.",
"/./././././.X 1 k >.>.z U l 1 X O q K @._ ( @.K q O + # + + % * ",
"/./././././.0 J Q 3.3.3.3.Q d 0 r G $.;.=.=.;.$.G r p a a i 4 % ",
"/./././.X 0 K $.$.%.#.$.%.#.@.K ^ @.$.=.*.*.*.$.@.( ( @.$.^ i $ ",
"/./././.1 J #.=.*.*.*.*.*.=.=.=.=.=.*.*.*.$.*.*.=.=.=.=.*.K p $ ",
"/./.+ w l W Q [ $.=.*.*.*.*.*.*.*.$.*.$.*.$.*.*.*.=.=.@.H 8 /./.",
"/./.+ u Y 2.,.Q ) $.$.*.*.*.*.*.*.*.*.*.*.*.*.$.#.$.%._ s < /./.",
"/./.+ y Y ! <.1.Q [ $.=.*.*.*.*.=.*.*.*.*.=.=.$.[ ` ` ` W l e # ",
"/./.O t U Q W <.,.Q ) $.#.#.$.#.#.#.#.#.#.#.$.) <.,.,.<.2.Y y # ",
"/./.+ y W 2.1.<.W 1.` ` 4./ 4.' ` ` / ` / ` ` ` <.<.<.<.Q U e + ",
"/./.+ w l W W W <.W ,.W <.,.<.,.,.<.<.,.<.,.,.<.<.<.<.<.1.Y t + ",
"/./.& > * u Y 1.1.W W 1.W 1.<.W <.<.<.<.<.<.<.<.<.<.<.1.4.W y # ",
"/./.& > = u Y 1.W 1.1.W 1.W 1.W <.<.<.<.<.<.1.Q <.<.<.<.W l e + ",
"/./.# 4 s >.,.<.1.1.<.1.W 1.W 1.<.<.<.W <.<.<.<.<.<.W z s , /./.",
"/./.O s 4.5.1.>.<.W W 1.1.W 1.W 1.<.<.<.<.<.<.<.<.1.5.! u X /./.",
"/./.X j w.i.4.I W 1.>.>.<.<.<.<.Q <.<.<.<.<.<.T >.2.i.i.j X /./.",
"/./.X R a.h.0.4.1.Y <.,.<.>.<.>.>.<.<.T <.>.W <.2.0.h.p.j X /./.",
"/./.X E p.j.a.w.4.l >.>.>.>.,.>.>.>.>.>.Y Y z ' q.a.j.p.R X /./.",
"/./.X h 6.a.h.a.8.' ] } } ' } } ' } } ' ] 5.' :.p.h.p...h O /./.",
"/./././.u | a.d.t.+.+.+.o.+.+.o.o.o.o.o.+.o.o.:.d.i.{ 5 3 $ /./.",
"/./././.  u  .g.F.G.D.D.H.H.G.G.G.G.H.H.G.G.D.F.k.:.F @ = % /./.",
"/./././.+ o - u.P.W.W.U.U.U.U.U.W.U.U.U.W.U.W.I.z.X.-.K p # /./.",
"/./././.$ ; - 7.P.~.~.Q.Q.Q.Q.Q.Q.Q.Q.Q.Q.Q.Q.E.S.D L ~ p + /./.",
"/./././.O h ..f.l.J.W.Q.!.!.!.!.!.!.!.!.!.!.^.E.V.7 9 i /./././.",
"/./././.X R p.d.r.l.P.T.Y.Y.Y.Y.Y.Y.Y.Y.Y.Y.E.K.A     + /./././.",
"/./././.X E p.j.y.z.C.B.A.A.Z.Z.Z.Z.Z.Z.A.A.A.N.b   /./././././.",
"/./././.X h 9.p.i.i.S n n m B N N B B N B N N M c . /./././././.",
"/./././././.h E P z f x 2 v Z n.b.m.m.c.m.m.n.Z c   /./././././.",
"/./././././.X X O     .   6 C v.Z Z v.b.b.v.v.C c   /./././././.",
"/./././././././././././././.c c 6 v Z n.n.Z b 6 /./././././././.",
"/./././././././././././././.      6 Z n.n.Z 6   /./././././././."
};
