/* XPM */
static char *result[] = {
/* columns rows colors chars-per-pixel */
"32 32 197 2 ",
"   c #000000",
".  c #00000C",
"X  c #000012",
"o  c #000B14",
"O  c #001319",
"+  c #00191A",
"@  c #1F1C1C",
"#  c #30251E",
"$  c #3F2407",
"%  c #002321",
"&  c #1C2824",
"*  c #332721",
"=  c #3B2823",
"-  c #2D2722",
";  c #430000",
":  c #4A0000",
">  c #451C1A",
",  c #5B1B13",
"<  c #610000",
"1  c #442407",
"2  c #432B25",
"3  c #472E29",
"4  c #4D3322",
"5  c #4F3029",
"6  c #52332B",
"7  c #5A3828",
"8  c #642A22",
"9  c #6D2D24",
"0  c #672720",
"q  c #722E25",
"w  c #663A29",
"e  c #773127",
"r  c #78382C",
"t  c #723F32",
"y  c #73472A",
"u  c #75492C",
"i  c #794B2D",
"p  c #6C4437",
"a  c #744435",
"s  c #78463B",
"d  c #664028",
"f  c #233F41",
"g  c #2E4A4B",
"h  c #324F50",
"j  c #00696B",
"k  c #156667",
"l  c #2C6F70",
"z  c #7F4842",
"x  c #596061",
"c  c #4D7B7D",
"v  c #5F7074",
"b  c #6C7173",
"n  c #AB2D08",
"m  c #8C3226",
"M  c #833E31",
"N  c #AA3E2C",
"B  c #C50F00",
"V  c #C80000",
"C  c #C41300",
"Z  c #D21900",
"A  c #D42D00",
"S  c #C82900",
"D  c #C43B26",
"F  c #83512F",
"G  c #8E5326",
"H  c #894D3B",
"J  c #824D3C",
"K  c #944F3D",
"L  c #9D4C3D",
"P  c #984639",
"I  c #845230",
"U  c #88503E",
"Y  c #8C5633",
"T  c #955B34",
"R  c #96513F",
"E  c #9D523F",
"W  c #985C3F",
"Q  c #985929",
"!  c #BE442F",
"~  c #A44A33",
"^  c #A04F3C",
"/  c #AB4F3C",
"(  c #AA4830",
")  c #BD4533",
"_  c #BC4E39",
"`  c #B44834",
"'  c #A2523E",
"]  c #A7553A",
"[  c #B2503B",
"{  c #BB563F",
"}  c #A9623D",
"|  c #DE5600",
" . c #D17014",
".. c #DA730D",
"X. c #EB7900",
"o. c #E07B15",
"O. c #F27F1B",
"+. c #C1442F",
"@. c #C44532",
"#. c #C64C36",
"$. c #CB4B35",
"%. c #C14E39",
"&. c #C94E38",
"*. c #D34B34",
"=. c #D94C34",
"-. c #D04F38",
";. c #CC5435",
":. c #D85431",
">. c #E15137",
",. c #E15D30",
"<. c #DF613A",
"1. c #D6623D",
"2. c #CB783A",
"3. c #E57F20",
"4. c #E1613A",
"5. c #E97B3D",
"6. c #8E5441",
"7. c #855342",
"8. c #955340",
"9. c #9B5542",
"0. c #9F5945",
"q. c #AD5641",
"w. c #A55A43",
"e. c #B15C40",
"r. c #BC7348",
"t. c #9A7675",
"y. c #CF5A4C",
"u. c #CB7B44",
"i. c #C07540",
"p. c #C17C5D",
"a. c #C06744",
"s. c #D77F78",
"d. c #D5813E",
"f. c #F18928",
"g. c #8C817C",
"h. c #A3897D",
"j. c #DC8345",
"k. c #DD8549",
"l. c #D58247",
"z. c #DE925F",
"x. c #D98C5D",
"c. c #ED8D46",
"v. c #E48B4C",
"b. c #ED8E4D",
"n. c #F28B49",
"m. c #EF904C",
"M. c #F1914B",
"N. c #F89449",
"B. c #E38A50",
"V. c #F38D50",
"C. c #EA9150",
"Z. c #F29452",
"A. c #F89651",
"S. c #FC9953",
"D. c #E89460",
"F. c #F49C63",
"G. c #3D7E80",
"H. c #5B7E87",
"J. c #448183",
"K. c #4E8486",
"L. c #528789",
"P. c #568A8C",
"I. c #59888B",
"U. c #558E90",
"Y. c #698F92",
"T. c #7BA1A3",
"R. c #819092",
"E. c #87A6A9",
"W. c #9EABAE",
"Q. c #D48683",
"!. c #DA8984",
"~. c #DB8B85",
"^. c #DA9188",
"/. c #E8A988",
"(. c #F3AC86",
"). c #F0AC89",
"_. c #F1AD8D",
"`. c #A3BEC1",
"'. c #BBD2D6",
"]. c #B9C4C7",
"[. c #D6CCCF",
"{. c #DAD8D9",
"}. c #CFD7D9",
"|. c #E2DCDF",
" X c #F0DCD3",
".X c #ECE0DC",
"XX c #F0E2DC",
"oX c #CBE5EC",
"OX c #D3E9EE",
"+X c #D9E8EC",
"@X c #D7EEF3",
"#X c #E9E4E8",
"$X c #ECEEF0",
"%X c #E8FDFF",
"&X c #E2F6FB",
"*X c #F3FFFF",
"=X c None",
/* pixels */
"=X=X=X=X=X=X=X=X=X=X=X=X=X=X=X=X=X=X=X=X=X=X=X=X=X=X=X=X=X=X=X=X",
"=X=X=X=X=X=X=X=X=X=X=X=X=X=X=X=X=X=X=X=X=X=X=X=X=X=X=X=X=X=X=X=X",
"=X=X=X=X=X=X=X=X=X=X=X=X=X=X=X=X=X=X=X=X=X=X=X=X=X=X=X=X=X=X=X=X",
"=X=X=X=X=X=X=X=X=X=X=X=X=X=X=X=X=X=X=X=X=X=X=X=X=X=X=X=X=X=X=X=X",
"=X=X=X=X=X=X=X=X=X=X=X=Xo o o o o o =X=Xo O o O o o o O + @ =X=X",
"=X=X=X=X=X=X=X=X=X=X=X=X2 6 5 5 6 2 =X=X8 q e 9 q q q 0 = + =X=X",
"=X=X=X=X=X=Xo o o o . & p H J J 7.p % > N @.@.) ) ) @.( 8 + =X=X",
"=X=X=X=X=X=X= 7 9 9 0 M ^ q.q.] q.L r m $.>.=.=.=.=.>.@.q o =X=X",
"=X=X=X=X  - p L ` @.+.@.#.#.#.#.&.#.@.+.$.*.*.*.*.-.>.$.e o =X=X",
"=X=X=X=X# a R e.-.=.=.=.=.=.*.=.*.*.=.*.=.$.*.*.*.*.@.N 0 o =X=X",
"=X=Xo 2 a L %.*.*.*.*.*.*.*.*.*.*.*.*.*.*.=.=.*.=.$.m > =X=X=X=X",
"=X=Xo 6 H q.%.$.*.*.*.$.$.*.*.$.*.*.*.$.#.#.#.&.&.` w % =X=X=X=X",
"=X=Xo 5 H w.w.[ &.=.*.*.$.*.*.*.*.=.*.$./ E E E E L K a 2 o =X=X",
"=X=Xo 5 H 8.6.' _ &.*.*.*.*.*.$.&.#.$._ / E E ' ^ 9.w.H 6 o =X=X",
"=X=Xo 5 H 9.8.8.E [ $.=.=.=.=.$.[ E ' / ) @.@.@.@.) L s 5 o =X=X",
"=X=Xo 5 H 8.8.8.U E _ $.#.#.#._ E 7.7.] ;.,.<.4.4.y.r.9.7 X =X=X",
"=X=Xo 5 H 8.8.8.8.8.' ' ' E E E E 6.z ] ..O.c.V.V.n.C.u.u X =X=X",
"=X=Xo 5 H w.8.8.8.8.8.R E E ] E R R w.r./.).z.2.l.v.N.v.I . =X=X",
"=X=Xo 5 H 9.9.8.R 8.8.E _ &.$._ R ]  ./..X}.g.; 1 T v.v.I . =X=X",
"=X=Xo 5 H 9.8.8.8.8.U / $.=.=.@.P } f._.XX}.g.; 1 T v.v.I . =X=X",
"=X=Xo 5 H 9.8.8.8.R 6.] $.=.=.#.P 0.v.F.(./.x.l.l.c.S.m.I . =X=X",
"=X=Xo 6 H 9.8.8.8.8.6.w._ $.*.$.] r.v.M.f.f.N.Z.v.k.v.} y X =X=X",
"=X=Xo 6 H w.8.6.6.6.6.8.E / @.<.v.m.C.M.c.m.N.k.T 4 w 7 * O =X=X",
"=X=Xo 2 a R ' / ~ ~ ~ ~ P ( D :.5.c.c.m.c.V.A.k.T 4 d 7 = + =X=X",
"=X=X=X=X& M %.=.S V B C C B V Z A | X.f.c.Z.A.Z.v.k.v.u.i . =X=X",
"=X=X=X=X. , n y.s.^.~.~.!.Q.!.Q.Q.^./.(.F.c.j.l.k.v.m.u.i . =X=X",
"=X=X=X=X=X=X: t.[.$X#X+X|.{.|.|.#X#X$X X(...G 4 u F Y u =X=X=X=X",
"=X=X=X=X=X=X  I.'.@XoX@X&X%X%X&XOXoXoX{.).o.Q # o . . . =X=X=X=X",
"=X=X=X=X  f l Y.T.E.T.].+X*X*X+XW.v H.R.D.N.M.u.u . =X=X=X=X=X=X",
"=X=X=X=X  h H.I.G.l j Y.'.+X+X[.x     < 2.v.C.u.i . =X=X=X=X=X=X",
"=X=X=X=X  g c P.K.K.J.I.T.E.R.b =X=X=X=Xu I I i =X=X=X=X=X=X=X=X",
"=X=X=X=X  g c P.I.L.I.K.c k     =X=X=X=X. X X X =X=X=X=X=X=X=X=X"
};
