/* XPM */
static char *result[] = {
/* columns rows colors chars-per-pixel */
"32 32 211 2 ",
"   c black",
".  c #00000A",
"X  c #0B0000",
"o  c #000112",
"O  c #000D15",
"+  c #001017",
"@  c #001419",
"#  c #001B1B",
"$  c #171D1C",
"%  c #180000",
"&  c #311E1D",
"*  c #00211F",
"=  c #3A221F",
"-  c #001C22",
";  c #002222",
":  c #192825",
">  c #1F3030",
",  c #3F2C20",
"<  c #3B2724",
"1  c #4C0000",
"2  c #4E1311",
"3  c #6D1A04",
"4  c #59231E",
"5  c #503310",
"6  c #62251C",
"7  c #442C25",
"8  c #4B2E26",
"9  c #4A2E29",
"0  c #582924",
"q  c #4E322B",
"w  c #52322A",
"e  c #5A3E3D",
"r  c #642922",
"t  c #6C2C23",
"y  c #722E25",
"u  c #753026",
"i  c #7A3429",
"p  c #683B33",
"a  c #6C362C",
"s  c #744436",
"d  c #7B4239",
"f  c #7A4436",
"g  c #6E4432",
"h  c #294F4F",
"j  c #176765",
"k  c #29797B",
"l  c #337A7B",
"z  c #306A6B",
"x  c #5E5C5D",
"c  c #6C4747",
"v  c #4A7A7C",
"b  c #5A6365",
"n  c #6F6C6A",
"m  c #7C7C7B",
"M  c #74777B",
"N  c #6C7779",
"B  c #BC0F00",
"V  c #8E2D0E",
"C  c #B83718",
"Z  c #AC2C08",
"A  c #903628",
"S  c #863D30",
"D  c #AA3D2C",
"F  c #BC3C27",
"G  c #D70300",
"H  c #C91400",
"J  c #C82300",
"K  c #D83B01",
"L  c #D93D0F",
"P  c #CB2D00",
"I  c #CB3A24",
"U  c #86422C",
"Y  c #8B4E3C",
"T  c #84493B",
"R  c #9A4A38",
"E  c #89503E",
"W  c #925B33",
"Q  c #9C523F",
"!  c #94513E",
"~  c #B7422D",
"^  c #A34C35",
"/  c #A54D3C",
"(  c #BC4530",
")  c #BB4D3A",
"_  c #B84836",
"`  c #A2513E",
"'  c #A9593E",
"]  c #B3503B",
"[  c #B05F3C",
"{  c #9F6135",
"}  c #B5633B",
"|  c #D84700",
" . c #DB5400",
".. c #E35400",
"X. c #DD700F",
"o. c #EC7800",
"O. c #E27B1C",
"+. c #CC462B",
"@. c #C4442F",
"#. c #D84626",
"$. c #D6572D",
"%. c #C24631",
"&. c #C64C36",
"*. c #CB4B35",
"=. c #C94A36",
"-. c #D34B34",
";. c #DA4D34",
":. c #D04E38",
">. c #CB533D",
",. c #D95538",
"<. c #E05037",
"1. c #E14724",
"2. c #D47E3D",
"3. c #D3623C",
"4. c #E77C39",
"5. c #E37F21",
"6. c #8C5441",
"7. c #825040",
"8. c #945341",
"9. c #9B5541",
"0. c #9F5945",
"q. c #864E40",
"w. c #AC5641",
"e. c #A15642",
"r. c #BE5649",
"t. c #BF5C50",
"y. c #B76846",
"u. c #A56852",
"i. c #837479",
"p. c #967776",
"a. c #BD7675",
"s. c #C8584C",
"d. c #D77842",
"f. c #C87945",
"g. c #E06C53",
"h. c #D1666B",
"j. c #DA7C67",
"k. c #D47A76",
"l. c #C37F7A",
"z. c #F38A29",
"x. c #91867D",
"c. c #DB8549",
"v. c #D88548",
"b. c #DB8E5E",
"n. c #EE8B45",
"m. c #E58B4D",
"M. c #E88848",
"N. c #F18844",
"B. c #F08847",
"V. c #EE924F",
"C. c #F3924A",
"Z. c #F8944A",
"A. c #E78C55",
"S. c #F49551",
"D. c #F89753",
"F. c #FD9B54",
"G. c #EC9352",
"H. c #D8837E",
"J. c #F59D64",
"K. c #007D80",
"L. c #7F7F80",
"P. c #368A8C",
"I. c #4D8486",
"U. c #4F888A",
"Y. c #54898B",
"T. c #548789",
"R. c #5A9092",
"E. c #768587",
"W. c #73888F",
"Q. c #7BA8AC",
"!. c #A88A83",
"~. c #829DA3",
"^. c #84A6A9",
"/. c #86AAAC",
"(. c #9CA0A1",
"). c #9EAEB1",
"_. c #CB8A86",
"`. c #D88884",
"'. c #C9928F",
"]. c #E09289",
"[. c #DEA487",
"{. c #EEA682",
"}. c #EAA98B",
"|. c #F3B08A",
" X c #D8A8AA",
".X c #DBA3B9",
"XX c #C3ADC5",
"oX c #BACCD0",
"OX c #C9C5C7",
"+X c #CAD3DA",
"@X c #D8D8DA",
"#X c #D0C6C8",
"$X c #E3CCC7",
"%X c #E3D8DC",
"&X c #F1E4DC",
"*X c #CEDEE4",
"=X c #D3DFE3",
"-X c #E5DFE1",
";X c #CEE2E5",
":X c #CEE5E9",
">X c #D1E9ED",
",X c #D0E7EB",
"<X c #DCF2F6",
"1X c #E5E4E6",
"2X c #E2E6EB",
"3X c #EAEAEC",
"4X c #E8E5E7",
"5X c #E5FCFE",
"6X c #EBFCFF",
"7X c #EAF5F9",
"8X c None",
/* pixels */
"8X8X8X8X8X8X8X8X8X8X8X8X8X8X8X8X8X8X8X8X8X8X8X8X8X8X8X8X8X8X8X8X",
"8X8X8X8X8X8X8X8X8X8X8X8X8X8X8X8X8X8X8X8X8X8X8X8X8X8X8X8X8X8X8X8X",
"8X8X8X8X8X8X8X8XO O O O O O # $ 8X8XO + + + O O 8X8X8X8X8X8X8X8X",
"8X8X8X8X8X8X8X8X7 w q q q 7 : + 8X8Xr i y y u r 8X8X8X8X8X8X8X8X",
"8X8X8X8X8X8X. : s E T T E s : o o 4 D =.( %.%.D 0 o O + + + # $ ",
"8X8X8X8X8X8X4 S / w.w.w.w./ i 0 0 A =.;.;.;.<.*.A 0 t y y t < # ",
"8X8X8X8X. 4 D +.&.&.&.&.&.&.( ( ( %.*.;.:.:.-.*.%.( ( %.=.( t + ",
"8X8X8X8X: S ) ,.-.-.;.-.-.-.;.;.;.;.-.-.-.-.-.-.-.;.;.-.-.D t + ",
"8X8XO 7 s ! Q ] :.;.-.-.-.-.-.:.-.*.-.-.*.-.-.:.-.;.;.%.A 2 8X8X",
"8X8XO w Y 0.6.Q ) *.-.-.-.-.-.-.-.-.-.-.-.-.-.+.=.&.:._ a * 8X8X",
"8X8XO 0 E 9.8.! Q ] *.;.-.-.-.-.-.-.-.-.-.;.;.*.] Q ` ` ! s 9 + ",
"8X8XO w Y 9.9.8.E Q ) &.&.&.&.&.&.&.&.&.&.&.*.) 9.6.6.8.0.Y w @ ",
"8X8XO w Y e.9.8.! 6.` ` ` Q ` ` ` ` / ` Q Q ` Q 8.6.8.8.9.E 8 O ",
"8X8XO 7 s E 8.` ^ ^ ` e.` ` / 9.! 6.6.9.Q / R ^ / ` Q 9.9.Y q O ",
"8X8X$ $ ; q 7.^ Z J +.:.>.*.=._ R q.8.w.s.+.J J I _ ` 8.0.Y w O ",
"8X8X# & 2 u T u.H.H.s.C F %.,.3.y.0.6.U C s.l.`.g.$.' E E f 8 O ",
"8X8X+ r D ~ V !.@X+Xi.% X U d.B.V.f.g     i.+X%X{.X.[ d p < 8X8X",
"8X8XO y +.#.Z !.%X@Xx.1 5 W c.F.F.m.{ 5 1 x.@X&X|.z.} d < . 8X8X",
"8X8XO y @.*.R u.}.}.b.2.v.v.V.S.D.S.M.c.2.b.}.{.J.M.y.d 7 O 8X8X",
"8X8X+ y @.:.] [ z.z.C.D.D.S.S.m.c.v.c.m.C.C.z.z.B.c.y.s 9 O 8X8X",
"8X8X+ i =.;.=.3.z.C.G.V.S.S.S.c.W , 7 W c.Z.C.C.D.m.y.T w o 8X8X",
"8X8XO r D @.I ;.d.M.n.C.V.C.S.c.W , , W c.S.V.C.N.2.' p 7 O 8X8X",
"8X8X8X8Xq V H G P  .o.z.C.S.S.m.c.v.v.c.G.Z.z.o...P u : 8X8X8X8X",
"8X8X8X8X  c a.`.H.`.}.{.A.4.M.M.N.N.N.N.4.A.{.}.].a.c   8X8X8X8X",
"8X8X8X8X  x OX4X%X=X4X$Xj.G |  .| K K K G j.$X4X1XOXM   8X8X8X8X",
"8X8X8X8Xb ).>X6X5X5X6X2X Xh.h.h.l.`.`.`.k. X2X5X6X:XE.  8X8X8X8X",
"8X8X  M oX<X5X6X6X7X6X7X3X%X.X.X%X3X1X1X-X2X7X6X6X:XW.  8X8X8X8X",
"8X8X  E.@X3X-X@X*X;X;X;X>X;XXXXX+X,X,X>X,X,X;X=X1X#Xp.1 8X8X8X8X",
"8X8X  c l.].`._.(.Q.Q./.^.~.~.~.L.E.~././.^.Q.(.'.k.s.C 6 + 8X8X",
"8X8X; 3 B G G C N j k k l l l j # - z K.l k K.n C G #.=.u + 8X8X",
"8X8X@ t I I K s.m P.I.T.T.v h h z v T.T.I.I.P.m s.| ;.%.y + 8X8X",
"8X8X+ y ( ;.#.t.m P.T.T.T.v > > v W.T.T.T.Y.P.m r.#.;.( t + 8X8X"
};
