/* XPM */
static char *result[] = {
/* columns rows colors chars-per-pixel */
"32 32 206 2 ",
"   c #000000",
".  c #00000C",
"X  c #120000",
"o  c #000011",
"O  c #000B14",
"+  c #001319",
"@  c #00191A",
"#  c #1F1C1C",
"$  c #391000",
"%  c #3F2408",
"&  c #002321",
"*  c #1C2823",
"=  c #00323D",
"-  c #153636",
";  c #382822",
":  c #2D2722",
">  c #430000",
",  c #4F0000",
"<  c #550000",
"1  c #451C1A",
"2  c #5B1D16",
"3  c #731A00",
"4  c #442408",
"5  c #752F00",
"6  c #6C3A14",
"7  c #432C25",
"8  c #472E29",
"9  c #4F3029",
"0  c #4D3322",
"q  c #52332C",
"w  c #5A3828",
"e  c #642A22",
"r  c #6D2D24",
"t  c #672720",
"y  c #722E25",
"u  c #663A29",
"i  c #783429",
"p  c #723F32",
"a  c #7D451C",
"s  c #694229",
"d  c #76492C",
"f  c #7C4D2E",
"g  c #70462B",
"h  c #6C4437",
"j  c #744435",
"k  c #79463B",
"l  c #003E4A",
"z  c #00414B",
"x  c #004951",
"c  c #1C595E",
"v  c #164346",
"b  c #2B4344",
"n  c #305354",
"m  c #275861",
"M  c #186467",
"N  c #236C6F",
"B  c #38777A",
"V  c #267273",
"C  c #7F4842",
"Z  c #715646",
"A  c #684D40",
"S  c #495F61",
"D  c #4F7171",
"F  c #767B7C",
"G  c #AB3115",
"H  c #8C3226",
"J  c #833E31",
"K  c #AA3E2C",
"L  c #C50F00",
"P  c #C80000",
"I  c #C41300",
"U  c #D21900",
"Y  c #D42D00",
"T  c #C82900",
"R  c #C43B26",
"E  c #9E5818",
"W  c #83512F",
"Q  c #894D3B",
"!  c #824D3C",
"~  c #944F3D",
"^  c #9D4C3D",
"/  c #984639",
"(  c #845130",
")  c #88503E",
"_  c #8D5733",
"`  c #955B34",
"'  c #9D523F",
"]  c #97553F",
"[  c #BE442F",
"{  c #A44A33",
"}  c #AB4F3C",
"|  c #A34C38",
" . c #BD4533",
".. c #BC4E39",
"X. c #B44834",
"o. c #A2523E",
"O. c #A75539",
"+. c #B2503B",
"@. c #BB563F",
"#. c #A9623D",
"$. c #DE5600",
"%. c #D66F00",
"&. c #DC6E05",
"*. c #D17014",
"=. c #E57F1F",
"-. c #F27F1B",
";. c #EB7900",
":. c #C1442F",
">. c #C44532",
",. c #C64C36",
"<. c #CB4B35",
"1. c #C14E39",
"2. c #C94E38",
"3. c #D34B34",
"4. c #D94C34",
"5. c #D04F38",
"6. c #CC5435",
"7. c #D85431",
"8. c #E15137",
"9. c #E15D30",
"0. c #DF613A",
"q. c #D6623D",
"w. c #C1743F",
"e. c #D47D3D",
"r. c #E56E3C",
"t. c #8E5441",
"y. c #855342",
"u. c #955340",
"i. c #9B5542",
"p. c #9F5945",
"a. c #AD5641",
"s. c #A45A43",
"d. c #B15C40",
"f. c #BC7348",
"g. c #8C7B72",
"h. c #977776",
"j. c #CF5A4C",
"k. c #CB7B44",
"l. c #C17743",
"z. c #C17250",
"x. c #D57C76",
"c. c #DB813C",
"v. c #F68B26",
"b. c #EA893D",
"n. c #8C817C",
"m. c #DC8345",
"M. c #DD854A",
"N. c #D68347",
"B. c #DE925F",
"V. c #D98C5D",
"C. c #EF8E47",
"Z. c #E48A4C",
"A. c #EE8E4C",
"S. c #E08748",
"D. c #F28B49",
"F. c #EF904C",
"G. c #FF9B4F",
"H. c #F3924A",
"J. c #F38D50",
"K. c #E99150",
"L. c #F29452",
"P. c #F89651",
"I. c #F79857",
"U. c #E38A50",
"Y. c #D5926D",
"T. c #F69D64",
"R. c #F5A170",
"E. c #4F7F81",
"W. c #507F81",
"Q. c #6E7D80",
"!. c #4B8283",
"~. c #558486",
"^. c #738B8E",
"/. c #7A9EA1",
"(. c #89A2A7",
"). c #8BAEB1",
"_. c #8DB2B5",
"`. c #DA8B86",
"'. c #D48886",
"]. c #DA9087",
"[. c #D8A389",
"{. c #E7A78B",
"}. c #EAAA86",
"|. c #F5B290",
" X c #F5AF89",
".X c #F5C7B3",
"XX c #BDCFD3",
"oX c #B8CCD1",
"OX c #D6D0CE",
"+X c #CAD7DA",
"@X c #D1CFD0",
"#X c #E9D1C7",
"$X c #ECE0DB",
"%X c #F0E2DC",
"&X c #D2E6EB",
"*X c #D8E4E8",
"=X c #D8EDF3",
"-X c #DEF9FF",
";X c #E3E4E7",
":X c #E6E6E8",
">X c #E9EBEA",
",X c #E9E4E7",
"<X c #E0EFF3",
"1X c #EAFEFF",
"2X c #F5FAFA",
"3X c None",
/* pixels */
"3X3X3X3X3X3X3X3X3X3X3X3X3X3X3X3X3X3X3X3X3X3X3X3X3X3X3X3X3X3X3X3X",
"3X3X3X3X3X3X3X3X3X3X3X3X3X3X3X3X3X3X3X3X3X3X3X3X3X3X3X3X3X3X3X3X",
"3X3X# @ + O O + O + O O 3X3XO O O O O O 3X3X3X3X3X3X3X3X3X3X3X3X",
"3X3X@ ; e y r y y y y t 3X3X7 q 9 9 q 7 3X3X3X3X3X3X3X3X3X3X3X3X",
"3X3X@ e K <. .[  . .<.{ 1 & h ) ! ! ) h * o O O O O 3X3X3X3X3X3X",
"3X3XO y >.8.4.4.4.4.8.>.H i o.a.a.} a.| i t r r w 7 3X3X3X3X3X3X",
"3X3XO i <.8.4.5.3.3.3.<.:. .,.,.,.,.2.,.,. .:.X.~ h :   3X3X3X3X",
"3X3XO e K >.3.3.3.3.3.5.4.4.3.3.3.3.3.4.4.4.8.5.d.^ j : 3X3X3X3X",
"3X3X3X3X1 H >.4.4.3.3.3.3.3.3.3.3.3.3.3.3.3.5.4.3.,.i.j 7 O 3X3X",
"3X3X3X3X& r X.2.2.1.,.<.3.3.3.3.3.3.<.3.<.3.3.3.<.1.a.Q q O 3X3X",
"3X3XO 7 p u.^ a.o.i.i.} <.4.3.3.3.<.<.3.3.3.3.<.+.^ i.Q 9 O 3X3X",
"3X3XO q Q s.i.i.| ^ i.} 1.,.,.,.<.3.3.3.3.3.<...s.t.i.Q 9 O 3X3X",
"3X3XO 9 k i. .>.>.R >. .} s.o.+.<.4.4.4.3.<.+.' u.u.i.Q 9 O 3X3X",
"3X3Xo w p.d.q.0.0.j.9.6.o.y.y.' ..,.,.,.<...' t.u.' i.Q 9 O 3X3X",
"3X3X. d k.A.A.A.P.D.-.&.O.C t.i.' ' ' o.o.o.' u.] u.i.Q 9 O 3X3X",
"3X3X. ( Z.P.Z.N.c.B.}.{.z.O.u.u.' o.o.' u.t.u.u.u.u.i.Q 9 O 3X3X",
"3X3X. ( Z.Z.` 4 > n.@X$X[.*.O.~ ..<.<...s.t.u.u.u.i.i.Q 9 O 3X3X",
"3X3X. ( Z.F.` 4 > n.+X$X Xv.#.^ ,.4.4.<.O.t.u.u.u.~ i.Q 9 o 3X3X",
"3X3X  ( Z.P.Z.N.c.V.{.}.T.m.s./ >.4.4.<.O.t.u.u.i.u.i.Q 9 O 3X3X",
"3X3XO g w.M.N.Z.P.H.v.v.H.Z.f.d.<.3.<...' u.u.u.u.u.i.Q q O 3X3X",
"3X3X+ ; w u 0 ` M.P.H.F.A.K.K.S.q.R +.] ] t.) u.t.u.s.~ q O 3X3X",
"3X3X@ ; w s 0 ` M.P.L.F.A.C.C.r.7.R { / { { { | } s.~ j 7 O 3X3X",
"3X3Xo f k.A.M.Z.L.P.L.C.v.;.$.Y U P L I I L P T 3...J * 3X3X3X3X",
"3X3X. d k.K.Z.Z.N.N.b.I.}.{.`.'.'.`.`.`.`.`.`.x.j.G 2 . 3X3X3X3X",
"3X3X3X3Xd _ ( f h E &.R.#X:X,X;X;X;X*X;X,X,X,X@Xh.< 3X3X3X3X3X3X",
"3X3X3X3X. . .     h Y..X>X-X&X*X;X,X,X;X*X&X1X&X^.  3X3X3X3X3X3X",
"3X3X3X3X3X3X3X3X  F OX2X1X*X(.g.[.|.|.[.g.(.=X=X^.  3X3X3X3X3X3X",
"3X3X3X3X3X3X3X3X  F XX=X=XoXc < %.v.v.%.< m oX+XF   3X3X3X3X3X3X",
"3X3X3X3X3X3X3X3X  S /._._.^.l 5 c.G.G.c.5 l /.(.S   3X3X3X3X3X3X",
"3X3X3X3X3X3X3X3XX - M V B N = 6 w.Z.Z.l.Z x M M - X 3X3X3X3X3X3X",
"3X3X3X3X3X3X3X3X3X3X- m !.E.v $ s f a Z D D n - 3X3X3X3X3X3X3X3X",
"3X3X3X3X3X3X3X3X3X3X  b E.E.n         z !.~.b   3X3X3X3X3X3X3X3X"
};
