/* XPM */
static char *result[] = {
/* columns rows colors chars-per-pixel */
"32 32 211 2 ",
"   c black",
".  c #00000A",
"X  c #060500",
"o  c #1A0100",
"O  c #000112",
"+  c #000C15",
"@  c #001017",
"#  c #001419",
"$  c #001A1B",
"%  c #111B1C",
"&  c #1C1C1B",
"*  c #311E1D",
"=  c #00211F",
"-  c #2C201F",
";  c #3A221F",
":  c #042727",
">  c #182724",
",  c #00373A",
"<  c #002C3B",
"1  c #3F2C20",
"2  c #3B2724",
"3  c #273E3F",
"4  c #4B0000",
"5  c #500000",
"6  c #4A1C15",
"7  c #630000",
"8  c #740000",
"9  c #6F1800",
"0  c #5D221D",
"q  c #53251F",
"w  c #4C2D12",
"e  c #753200",
"r  c #442C25",
"t  c #4B2E26",
"y  c #482926",
"u  c #5B2822",
"i  c #4E322B",
"p  c #52322A",
"a  c #642922",
"s  c #6A2B23",
"d  c #732E25",
"f  c #753026",
"g  c #7C362A",
"h  c #693B36",
"j  c #6C362C",
"k  c #744436",
"l  c #7B4239",
"z  c #7A4436",
"x  c #6E4432",
"c  c #005557",
"v  c #00595C",
"b  c #004C56",
"n  c #31595A",
"m  c #00717A",
"M  c #2D7475",
"N  c #356F72",
"B  c #714D45",
"V  c #467A7D",
"C  c #497A7C",
"Z  c #55757E",
"A  c #697578",
"S  c #716E6F",
"D  c #801B02",
"F  c #B00000",
"G  c #8D2F0D",
"H  c #A12C00",
"J  c #BB2602",
"K  c #B6351B",
"L  c #903628",
"P  c #863D30",
"I  c #AB3D2B",
"U  c #B83223",
"Y  c #BB3A29",
"T  c #B93E35",
"R  c #C31A00",
"E  c #C82300",
"W  c #C93400",
"Q  c #DA3800",
"!  c #C63923",
"~  c #86422C",
"^  c #834E3D",
"/  c #8B4E3C",
"(  c #854539",
")  c #9A4A39",
"_  c #89503E",
"`  c #925B33",
"'  c #9C523F",
"]  c #94513E",
"[  c #B7422D",
"{  c #A34C35",
"}  c #A34A39",
"|  c #BC4530",
" . c #BB4D3A",
".. c #B84836",
"X. c #A2513E",
"o. c #A9593E",
"O. c #B3503B",
"+. c #B05F3C",
"@. c #B65B2D",
"#. c #9F6135",
"$. c #B4653E",
"%. c #D54900",
"&. c #E35400",
"*. c #DD700F",
"=. c #EB7700",
"-. c #F57F00",
";. c #E27A16",
":. c #CE4629",
">. c #D9582A",
",. c #C24631",
"<. c #CA4632",
"1. c #C64C36",
"2. c #CB4B35",
"3. c #CB4F38",
"4. c #C74E38",
"5. c #D34B34",
"6. c #D94D34",
"7. c #CB533D",
"8. c #D95538",
"9. c #E05037",
"0. c #E15E30",
"q. c #D57E3D",
"w. c #D6633D",
"e. c #E37F21",
"r. c #E1633D",
"t. c #8C5441",
"y. c #825040",
"u. c #945341",
"i. c #9B5541",
"p. c #9F5945",
"a. c #864E40",
"s. c #AC5641",
"d. c #A15642",
"f. c #B9504C",
"g. c #A06042",
"h. c #B76846",
"j. c #A76C5A",
"k. c #837479",
"l. c #BB7174",
"z. c #C5564B",
"x. c #D77842",
"c. c #C87945",
"v. c #E06C53",
"b. c #CD7971",
"n. c #F48C2D",
"m. c #F18825",
"M. c #EA833B",
"N. c #FA923A",
"B. c #88867D",
"V. c #99867D",
"C. c #A4867E",
"Z. c #D48044",
"A. c #D6854A",
"S. c #DB8549",
"D. c #DD894B",
"F. c #DB8447",
"G. c #DC8D5C",
"H. c #D78154",
"J. c #E58B4D",
"K. c #EA8D4E",
"L. c #EA8745",
"P. c #F28B4C",
"I. c #F08843",
"U. c #EE924F",
"Y. c #F2924A",
"T. c #F8954A",
"R. c #E88A56",
"E. c #EC9258",
"W. c #F49551",
"Q. c #F89753",
"!. c #FB9A54",
"~. c #D8857C",
"^. c #DA9261",
"/. c #E38A7A",
"(. c #EC9E72",
"). c #F59D64",
"_. c #367F81",
"`. c #368689",
"'. c #548A8C",
"]. c #588D8F",
"[. c #558B8D",
"{. c #7B888A",
"}. c #878B8B",
"|. c #818E91",
" X c #859698",
".X c #A88A83",
"XX c #AB938E",
"oX c #85A4A7",
"OX c #88AEB1",
"+X c #C88784",
"@X c #E09389",
"#X c #DEA487",
"$X c #ECA985",
"%X c #ECA889",
"&X c #F0AD8C",
"*X c #D7A8AC",
"=X c #EEC7B5",
"-X c #B8C8CD",
";X c #CAD1D7",
":X c #D9D8D8",
">X c #CECACD",
",X c #E6D3CF",
"<X c #E6D8D6",
"1X c #E3CDCE",
"2X c #F1E4DC",
"3X c #D6E8EC",
"4X c #D3ECF2",
"5X c #E8E9EB",
"6X c #EAF7F9",
"7X c #F4FCFC",
"8X c None",
/* pixels */
"8X8X8X8X8X8X8X8X8X8X8X8X8X8X8X8X8X8X8X8X8X8X8X8X8X8X8X8X8X8X8X8X",
"8X8X8X8X8X8X8X8X8X8X8X8X8X8X8X8X8X8X8X8X8X8X8X8X8X8X8X8X8X8X8X8X",
"8X8X8X8X8X8X8X8X8X8X8X8X8X8X8X8X8X8X8X8X8X8X8X8X8X8X8X8X8X8X8X8X",
"8X8X8X8X8X8X8X8X8X8X8X8X8X8X8X8X8X8X8X8X8X8X8X8X8X8X8X8X8X8X8X8X",
"8X8X8X8X8X8X8X8X+ + + + + # $ & 8X8X+ @ @ @ @ @ 8X8X8X8X8X8X8X8X",
"8X8X8X8X8X8X8X8Xr p t t p r & $ 8X8Xa g s d f a 8X8X8X8X8X8X8X8X",
"8X8X8X8X8X8X. > x a.^ ^ ^ k > . O u I ,.,.,.,.I u O + @ @ @ $ & ",
"8X8X8X8X8X8X0 P X.s.O.s.s.' g 0 u L ,.9.6.6.9.2.L u s d d s 2 $ ",
"8X8X8X8X. 0 I 2.2.4.4.4.4.1.| | | ,.2.5.5.5.5.2.,...| ,.<.| s # ",
"8X8X8X8X> P  .6.5.6.5.6.5.6.6.6.6.6.5.2.2.5.5.5.6.6.6.5.5.I s # ",
"8X8X+ y k ] ' O.5.5.5.2.2.5.5.5.5.5.5.5.5.5.5.5.5.6.6.<.L 6 8X8X",
"8X8X+ p ] d.t.'  .2.5.5.5.5.5.2.5.5.5.2.5.5.5.2.4.4.3...j : 8X8X",
"8X8X+ t / i.u.i.' O.2.6.5.5.5.6.5.5.5.5.5.5.6.2.O.' X.' / z r @ ",
"8X8X+ p / i.u.] _ '  .3.1.4.1.4.4.4.1.1.4.4.2. .' t.u.u.d./ p # ",
"8X8X+ p / d.i.u._ u.' X.X.' ' X.X.o.X.X.X.' X.' u.t.u.u.i./ t + ",
"8X8X+ r k / u.' { { X.X.X.X.X.' ] t._ ' ' X.{ ) } X.' u.i./ i + ",
"8X8X% % : i ^ { E E :.7.3.3.<...) t.t.s.7.:.E R !  .X.u.p._ p @ ",
"8X8X$ * 6 f ~ j.+X~.z.K Y ,.8.w.h.d./ ( U z.~.+Xv.>.X.t.] z r + ",
"8X8X# a I [ G .X:X:Xk.o o ~ x.K.K.c.x     k.;X<X%X*.o.( h 2 8X8X",
"8X8X+ d :.6.H .X:X:XB.4 w ` D.!.!.K.#.w 5 B.:X2X&Xm.$.k 2 . 8X8X",
"8X8X@ d 2.6.) j.%X$X^.q.Z.S.K.W.!.T.J.F.q.G.$X&X).J.h.l r O 8X8X",
"8X8X# s I ,.I @.;.n.T.W.W.W.W.K.F.Z.F.J.W.T.m.m.Y.D.h.l r + 8X8X",
"8X8X# - r 9 F %.M.W.Y.W.W.W.Q.F.` 1 r ` S.Q.Y.Y.T.J.h.( p + 8X8X",
"8X8X% $ X B b./.R.M.I.U.P.W.Q.F.` 1 1 ` S.W.Y.I.I.x.o.h r + 8X8X",
"8X8X+ 6 9 C.;X,Xb.Q =.n.T.Q.!.Y.D.A.A.F.E.T.n.=.&.W d > 8X8X8X8X",
"8X8X+ 6 8 XX4X5X*Xb.%X$XQ.q.x.L.P.P.P.N.M.^.%X%X@Xl.B   8X8X8X8X",
"8X8X$ o   }.3X7X5X5X5X,X/.Q 9.v.r.r.r.>.Q ~.<X5X5X>XA   8X8X8X8X",
"8X8X&     A >X3X3X4X4X;X+XJ Y U U T f.z.W ~.1X6X6X3X{.  8X8X8X8X",
"8X8X8X8X8X8XS  XoXOXOXoX}.S h 7 7 h A C.H.U.(.=X7X4X|.  8X8X8X8X",
"8X8X8X8X8X8X    c M M `.`.`.v , , c m B.^.N.-.(.<X-XA   8X8X8X8X",
"8X8X8X8X8X8X8X8X: n V '.'.'.C V C N b B S.T.T.G.C.Z 8X8X8X8X8X8X",
"8X8X8X8X8X8X8X8X  3 C '.'.'.].].].C , e Z.Q.Q.q.9   8X8X8X8X8X8X"
};
