/* XPM */
static char *result[] = {
/* columns rows colors chars-per-pixel */
"32 32 150 2 ",
"   c #000002",
".  c #00000C",
"X  c #000011",
"o  c #000C15",
"O  c #001117",
"+  c #001519",
"@  c #011A1B",
"#  c #0B1A1B",
"$  c #1C1E1D",
"%  c #161A1D",
"&  c #260000",
"*  c #231F1D",
"=  c #3A221F",
"-  c #002221",
";  c #1E2522",
":  c #162824",
">  c #3F2924",
",  c #520000",
"<  c #4A1E1B",
"1  c #53251F",
"2  c #5D221D",
"3  c #452C26",
"4  c #4C2E26",
"5  c #5B2822",
"6  c #4E3220",
"7  c #4E312A",
"8  c #5B3925",
"9  c #52322A",
"0  c #5A342B",
"q  c #593829",
"w  c #642922",
"e  c #6A2B23",
"r  c #712E25",
"t  c #68382E",
"y  c #773027",
"u  c #7C362A",
"i  c #6A3933",
"p  c #7E4416",
"a  c #7A4419",
"s  c #71462A",
"d  c #75492B",
"f  c #784A2D",
"g  c #6F4436",
"h  c #754436",
"j  c #7A4436",
"k  c #003A44",
"l  c #00787D",
"z  c #28787B",
"x  c #32787A",
"c  c #725B4C",
"v  c #43787B",
"b  c #5A7B79",
"n  c #737B71",
"m  c #893C2F",
"M  c #913729",
"N  c #903326",
"B  c #833D30",
"V  c #AA3D2C",
"C  c #824E2C",
"Z  c #82453D",
"A  c #834E3D",
"S  c #8B4C3D",
"D  c #994E3C",
"F  c #865330",
"G  c #8A5533",
"H  c #88503E",
"J  c #92503F",
"K  c #9D523F",
"L  c #9F5C3E",
"P  c #B3412E",
"I  c #BB432F",
"U  c #A24F3C",
"Y  c #BC4530",
"T  c #BC4E39",
"R  c #B94A36",
"E  c #A4513E",
"W  c #A75A38",
"Q  c #AD5F3A",
"!  c #B3503B",
"~  c #AF613A",
"^  c #AA683B",
"/  c #BB6E34",
"(  c #D57100",
")  c #DF7600",
"_  c #E07804",
"`  c #E17909",
"'  c #C24631",
"]  c #C64C36",
"[  c #CB4B34",
"{  c #CB4F38",
"}  c #C74E38",
"|  c #D34B34",
" . c #D94D34",
".. c #D85138",
"X. c #E05037",
"o. c #914E40",
"O. c #8D5441",
"+. c #955340",
"@. c #9A5541",
"#. c #9F5945",
"$. c #AD5641",
"%. c #A25B42",
"&. c #B26646",
"*. c #917D74",
"=. c #C26F40",
"-. c #C37641",
";. c #C57448",
":. c #CF7B49",
">. c #D27F47",
",. c #E88128",
"<. c #FE902F",
"1. c #FE9030",
"2. c #DA824C",
"3. c #C28056",
"4. c #E08542",
"5. c #E58B4B",
"6. c #EB8E4E",
"7. c #FF9746",
"8. c #FB964C",
"9. c #E98F50",
"0. c #E4915D",
"q. c #F59551",
"w. c #FF9B52",
"e. c #E79A6C",
"r. c #4E8486",
"t. c #49888B",
"y. c #548789",
"u. c #55888A",
"i. c #5A8C8E",
"p. c #74A7AD",
"a. c #8A8684",
"s. c #A7A39B",
"d. c #85A6A8",
"f. c #D9A58C",
"g. c #EEA781",
"h. c #F2AF8B",
"j. c #F1AA84",
"k. c #F4B28F",
"l. c #D4CCC8",
"z. c #D9D3CF",
"x. c #E7E1DE",
"c. c #CFE0E3",
"v. c #CBE4EB",
"b. c #D0E0E5",
"n. c #E6E5E5",
"m. c #E8E3E0",
"M. c #EEE9E6",
"N. c #E4F8FE",
"B. c #EAFAFE",
"V. c None",
/* pixels */
"V.V.V.V.V.V.V.V.V.V.V.V.V.V.V.V.V.V.V.V.V.V.V.V.V.V.V.V.V.V.V.V.",
"V.V.V.V.V.V.V.V.V.V.V.V.V.V.V.V.V.V.V.V.V.V.V.V.V.V.V.V.V.V.V.V.",
"V.V.V.V.V.V.V.V.o o X o o o @ $ V.V.o O O o o o V.V.V.V.V.V.V.V.",
"V.V.V.V.V.V.V.V.3 9 7 4 7 3 ; + V.V.w y r r y w V.V.V.V.V.V.V.V.",
"V.V.V.V.V.V.. : h A A A O.g : X X 1 V [ Y ' [ V 5 X o o o + @ $ ",
"V.V.V.V.V.V.2 m E $.$.$.$.U u 2 5 M [ .. . . .[ M 5 e e y e > @ ",
"V.V.V.V.. 2 V [ [ } ] [ ] ] ' Y Y ' [ | | | | [ ' Y Y ' [ Y w + ",
"V.V.V.V.; B T  .| | | | | | | .. . .| | | | [  . ..... .| V e o ",
"V.V.o 3 h J K ! {  .| | | | | | | [ | | | | [ | | |  .' N < V.V.",
"V.V.o 9 J #.J K T { | | | | | | | | | | | | | | ] ] [ R y - V.V.",
"V.V.o 9 S K +.+.K ! [ | | | | | | | | | | |  .[ ! %.U @.J j 3 O ",
"V.V.X 9 A #.+.+.H K T [ ] ] [ } ] ] ] ] ] ] { T @.o.o.+.#.S 9 O ",
"V.V.o 9 S %.@.K J L W %.E E E E E E E E E E E E +.+.+.+.@.S 4 o ",
"V.V.O 3 j S J J K J +.O.O.+.O.+.J O.O.+.O.O.O.+.+.+.+.+.#.S 4 O ",
"V.V.# $ * 0 S @.K +.J +.+.+.+.+.+.+.@.K +.+.+.J +.+.K +.%.S 9 O ",
"V.V.# $ % 0 S @.J J +.+.+.+.+.+.J +.+.+.+.+.+.K @.+.J J J j 4 o ",
"V.V.+ > i S J +.+.+.+.+.+.+.+.+.+.+.@.K +.+.+.+.+.+.o.Z t > V.V.",
"V.V.X t %.&.@.+.+.+.+.D +.+.+.+.+.+.+.+.+.+.+.+.o.%.&.W 7 . V.V.",
"V.V.. f >.2.%.Z +.+.+.+.+.@.+.+.+.+.O.K +.+.+.o.o.%.>.:.f . V.V.",
"V.V.. F 5.q.;.%.+.J +.+.+.+.o.+.+.+.+.J +.o.O.+.+.;.q.6.F . V.V.",
"V.V.. G 5.w.6.>.%.B o.o.S S o.S S o.o.o.o.c o.#.:.6.w.5.G . V.V.",
"V.V.. s -.5.q.6.=.W ~ $.~ ~ Q Q ~ ~ ~ &.W ! $.;.6.q.6.-.s . V.V.",
"V.V.V.V.8 ^ 5.8.,.) ) ) _ ` ` _ ) ) ` ) _ _ ) ` 8.9.^ 8 V.V.V.V.",
"V.V.V.V.  4 / e.g.k.k.k.h.h.k.h.k.h.k.h.h.h.h.g.0./ 6   V.V.V.V.",
"V.V.V.V..   & *.l.M.x.x.x.x.x.x.x.x.x.x.x.x.M.l.*.&     V.V.V.V.",
"V.V.V.V.f a , a.b.B.N.N.N.N.N.N.N.N.N.N.N.N.B.b.a., a f V.V.V.V.",
"V.V.. s -.4.( f.n.B.B.B.B.B.B.B.B.B.B.B.B.B.B.n.f.( 4.-.d . V.V.",
"V.V.. G 5.w.1.j.z.v.c.b.b.c.c.c.c.c.c.b.c.c.v.z.j.<.w.5.G . V.V.",
"V.V.. G 5.w.7.e.s.p.d.d.d.d.d.d.d.d.d.d.d.d.p.s.e.7.w.5.G . V.V.",
"V.V.. s -.5.4.3.n l z x x x x x x x x x x z l n 3.2.5.-.s . V.V.",
"V.V.V.V.f C p c b t.r.r.r.r.r.r.r.r.r.r.r.r.t.b c p C f V.V.V.V.",
"V.V.V.V.X     k v i.u.y.y.y.y.y.y.y.y.y.u.u.i.v k     X V.V.V.V."
};
