/* XPM */
static char *result[] = {
/* columns rows colors chars-per-pixel */
"32 32 196 2 ",
"   c #000000",
".  c #00000C",
"X  c #000012",
"o  c #000B14",
"O  c #001319",
"+  c #00191A",
"@  c #1F1C1C",
"#  c #31251E",
"$  c #3F2408",
"%  c #002321",
"&  c #1C2823",
"*  c #332721",
"=  c #3B2923",
"-  c #2D2722",
";  c #430000",
":  c #4A0000",
">  c #451C1A",
",  c #5B1B13",
"<  c #610000",
"1  c #442408",
"2  c #432C25",
"3  c #472E29",
"4  c #4D3322",
"5  c #4F3029",
"6  c #52332C",
"7  c #5A3828",
"8  c #642A22",
"9  c #6D2D24",
"0  c #672720",
"q  c #722E25",
"w  c #663A29",
"e  c #783429",
"r  c #723F32",
"t  c #73462A",
"y  c #75492C",
"u  c #794B2D",
"i  c #6C4437",
"p  c #744435",
"a  c #79463B",
"s  c #664028",
"d  c #223F41",
"f  c #2E4A4B",
"g  c #324F50",
"h  c #00696A",
"j  c #156667",
"k  c #2C6F70",
"l  c #7F4842",
"z  c #5A6063",
"x  c #4D7B7D",
"c  c #5F7074",
"v  c #6C7173",
"b  c #AB2D07",
"n  c #8C3226",
"m  c #833E31",
"M  c #AA3E2C",
"N  c #C50F00",
"B  c #C80000",
"V  c #C41300",
"C  c #D21900",
"Z  c #D42D00",
"A  c #C82900",
"S  c #C43B26",
"D  c #83512F",
"F  c #8F5326",
"G  c #894D3B",
"H  c #824D3C",
"J  c #944F3D",
"K  c #9D4C3D",
"L  c #984639",
"P  c #845230",
"I  c #88503E",
"U  c #8C5633",
"Y  c #955B34",
"T  c #96513F",
"R  c #9D523F",
"E  c #985C3F",
"W  c #98592A",
"Q  c #BE442F",
"!  c #A44A33",
"~  c #A04F3C",
"^  c #AB4F3C",
"/  c #AA4830",
"(  c #BD4533",
")  c #BC4E39",
"_  c #B44834",
"`  c #A2523E",
"'  c #A75539",
"]  c #B2503B",
"[  c #BB563F",
"{  c #A9623D",
"}  c #DE5600",
"|  c #D17014",
" . c #DA730D",
".. c #EB7900",
"X. c #E37D1B",
"o. c #F27F1B",
"O. c #C1442F",
"+. c #C44532",
"@. c #C64C36",
"#. c #CB4B35",
"$. c #C14E39",
"%. c #C94E38",
"&. c #D34B34",
"*. c #D94C34",
"=. c #D04F38",
"-. c #CC5435",
";. c #D85431",
":. c #E15137",
">. c #E15D30",
",. c #DF613A",
"<. c #D6623D",
"1. c #D47D3D",
"2. c #C27237",
"3. c #E1613A",
"4. c #E97B3D",
"5. c #8E5441",
"6. c #855342",
"7. c #955340",
"8. c #9B5542",
"9. c #9F5945",
"0. c #AD5641",
"q. c #A45A43",
"w. c #B15C40",
"e. c #BC7348",
"r. c #9A7675",
"t. c #CF5A4C",
"y. c #CB7B44",
"u. c #C07540",
"i. c #C17C5C",
"p. c #C06744",
"a. c #D77F78",
"s. c #D5813E",
"d. c #F18928",
"f. c #8C817C",
"g. c #A3897D",
"h. c #DC8345",
"j. c #DD8549",
"k. c #D58247",
"l. c #DE925F",
"z. c #D98C5D",
"x. c #ED8D46",
"c. c #E48B4C",
"v. c #ED8E4D",
"b. c #F28B49",
"n. c #EF904D",
"m. c #F1914B",
"M. c #F8944A",
"N. c #E38A50",
"B. c #F38D50",
"V. c #E99150",
"C. c #F29452",
"Z. c #F89651",
"A. c #FC9953",
"S. c #E89460",
"D. c #F49C63",
"F. c #3D7E80",
"G. c #5B7E87",
"H. c #498385",
"J. c #528789",
"K. c #568A8C",
"L. c #59888B",
"P. c #558D90",
"I. c #688F92",
"U. c #7BA1A3",
"Y. c #819092",
"T. c #87A6A9",
"R. c #9EABAE",
"E. c #D48683",
"W. c #DA8984",
"Q. c #DA8B85",
"!. c #DA9188",
"~. c #E8A988",
"^. c #F3AC86",
"/. c #F0AC89",
"(. c #F1AD8D",
"). c #A3BDC1",
"_. c #BBCFD3",
"`. c #BACCD0",
"'. c #D6CCCF",
"]. c #DFDADC",
"[. c #D5D6D6",
"{. c #CFD7D9",
"}. c #E2DCDF",
"|. c #F0DCD3",
" X c #ECE0DB",
".X c #F0E2DC",
"XX c #CBE5EC",
"oX c #D3E9EE",
"OX c #D9E8EC",
"+X c #D7EEF3",
"@X c #E9E4E8",
"#X c #ECEFF0",
"$X c #E8FDFF",
"%X c #E2F6FB",
"&X c #F3FFFF",
"*X c None",
/* pixels */
"*X*X*X*X*X*X*X*X*X*X*X*X*X*X*X*X*X*X*X*X*X*X*X*X*X*X*X*X*X*X*X*X",
"*X*X*X*X*X*X*X*X*X*X*X*X*X*X*X*X*X*X*X*X*X*X*X*X*X*X*X*X*X*X*X*X",
"*X*X*X*X*X*X*X*X*X*X*X*X*X*X*X*X*X*X*X*X*X*X*X*X*X*X*X*X*X*X*X*X",
"*X*X*X*X*X*X*X*X*X*X*X*X*X*X*X*X*X*X*X*X*X*X*X*X*X*X*X*X*X*X*X*X",
"*X*X@ + O o O O O o O o *X*Xo o o o o o *X*X*X*X*X*X*X*X*X*X*X*X",
"*X*X+ = 8 q q 9 9 q q 8 *X*X2 6 5 5 6 2 *X*X*X*X*X*X*X*X*X*X*X*X",
"*X*XO 0 M +.( Q ( +.+.M > % i I H H I i & X o O o o *X*X*X*X*X*X",
"*X*XO q +.:.*.*.&.*.:.@.n e K 0.0.^ w.K e 0 q 9 7 = *X*X*X*X*X*X",
"*X*XO e #.:.*.&.&.&.&.#.+.( @.%.@.@.@.@.+.( O._ K i -   *X*X*X*X",
"*X*Xo 0 M #.&.&.&.&.&.&.&.*.*.&.*.&.*.*.*.*.*.=.w.T r * *X*X*X*X",
"*X*X*X*X> n +.*.&.&.&.&.&.&.&.&.#.&.&.&.=.&.&.&.*.$.~ p 2 o *X*X",
"*X*X*X*X% w _ %.@.@.@.#.#.&.&.&.&.&.&.#.&.&.&.&.#.@.0.6.6 o *X*X",
"*X*Xo 2 p T R ` ` R 8.^ #.*.*.&.&.&.#.&.&.&.&.#.] R 8.G 5 o *X*X",
"*X*Xo 6 G 9.R ' ` K 7.^ @.#.@.#.#.&.&.&.&.&.#.) R 5.8.G 5 o *X*X",
"*X*Xo 3 a K ( +.+.+.+.( ^ R R ] #.&.*.*.&.#.] R 8.7.8.G 5 o *X*X",
"*X*XX 7 E p.t.3.,.,.>.-.` 6.6.R ) @.@.@.%.) R 5.T 7.8.G 5 o *X*X",
"*X*X. y y.v.n.m.B.x.o. .' l 5.8.R ` R ` ` ` 7.T 7.7.8.G 5 o *X*X",
"*X*X. D j.Z.c.k.s.l.~.~.e.' R 7.R ` ` R 7.5.7.7.T 8.8.G 5 o *X*X",
"*X*X. D c.c.Y 1 ; f.{. X~.| ' J ) #.@.) ` 7.7.7.7.T 8.G 5 o *X*X",
"*X*X. D c.c.Y 1 ; f.{. X(.d.{ K #.*.*.@.` 7.7.T 7.8.8.I 5 o *X*X",
"*X*X. P n.A.n.k.1.z.~./.D.c.' L +.*.*.#.^ T 7.7.7.7.8.G 5 o *X*X",
"*X*XX t { h.j.V.C.M.d.d.m.N.e.' -.&.#.) ` I 7.E 7.8.8.G 5 o *X*X",
"*X*X+ * 7 s 4 Y j.Z.b.m.m.C.V.y.<.O.^ R T I 5.5.7.7.q.G 6 o *X*X",
"*X*X+ = 7 s 4 Y j.Z.m.n.m.b.b.4.;.S / L ! ! ! ! ~ q.K p 2 o *X*X",
"*X*X. u y.c.j.c.C.Z.C.x.d...} Z C B N V V V B A &.@.m & *X*X*X*X",
"*X*X. y y.C.c.j.k.h.x.D.(.~.Q.E.E.E.W.W.E.E.!.a.t.b , . *X*X*X*X",
"*X*X*X*Xy U P y 4 F  .^.|.#X@X@X}.}.].}.@X@X#X[.r.: *X*X*X*X*X*X",
"*X*X*X*X. . . X # W X.^.[.XXXX+X%X$X$X%X+XXX+X_.L.  *X*X*X*X*X*X",
"*X*X*X*X*X*XX y y.n.M.S.g.G.v R.OX&X&XOX`.U.U.U.L.k d   *X*X*X*X",
"*X*X*X*X*X*X. u y.v.V.2.<     z `.OXOX`.I.h k F.L.J.g   *X*X*X*X",
"*X*X*X*X*X*X*X*Xu U P y *X*X*X*Xv I.T.U.I.H.H.J.L.x f   *X*X*X*X",
"*X*X*X*X*X*X*X*X. X X X *X*X*X*X    j x H.L.L.L.L.x f   *X*X*X*X"
};
